<svg width="157" height="165" viewBox="0 0 157 165" fill="none" xmlns="http://www.w3.org/2000/svg">
<path fill-rule="evenodd" clip-rule="evenodd" d="M19.6553 91.027L20.0155 90.9876L20.3936 90.9277L21.2841 90.807L22.2677 90.587L23.2716 90.3465L24.256 90.046L25.2785 89.7259L26.3009 89.3458L27.0773 89.0848L27.3987 88.9255L27.7015 88.7244L27.967 88.465L28.2131 88.1851L28.4017 87.8444L33.3061 76.9544L41.1628 97.6533L41.2567 97.893L41.3895 98.1139L41.5603 98.3142L41.7498 98.4742L41.9764 98.6138L42.2039 98.6942L42.45 98.7541H42.6961L49.379 98.7747L37.149 71.0488H29.9172L19.6553 91.027Z" fill="#597E7A"/>
<path fill-rule="evenodd" clip-rule="evenodd" d="M53.9231 72.7105V67.7061L41.9764 74.593L41.8631 74.6529L41.617 74.7531L41.3523 74.8327H41.1053L40.8981 74.7933L40.6706 74.7128L40.4812 74.6332L40.4059 74.593L40.4998 74.9131L40.6892 75.5535L40.9353 76.2143L41.2567 76.8752L41.6356 77.4753L42.0331 77.9761L42.412 78.3365L42.7528 78.5368L43.075 78.6164H43.3964L43.6992 78.5762L43.9267 78.4966L44.1161 78.4161L44.1914 78.3562L53.9231 72.7105V72.7105Z" fill="#B44533"/>
<path fill-rule="evenodd" clip-rule="evenodd" d="M77.8723 89.8876H77.7395L77.6262 89.9064L77.5129 89.9278L77.4368 89.9672L77.342 90.0271L77.2659 90.087L77.1906 90.1675L77.134 90.2668L76.2248 91.8889H80.3325V94.7515L80.012 94.8516L79.727 94.9312L79.4615 94.992L79.1789 95.0519L78.9134 95.1118L78.5539 95.1521L78.2698 95.1923L78.0237 95.212H77.2093L76.9251 95.1726L76.5276 95.1315L76.2823 95.0921L76.0354 95.0322L75.7901 94.9714L75.5432 94.8918L75.3165 94.7908L75.0324 94.6316L74.8049 94.4912L74.6154 94.3311L74.4268 94.1711L74.2374 93.9913L74.0666 93.8107L73.8966 93.6104L73.7638 93.3904L73.5938 93.0899L73.4796 92.8502L73.3849 92.5891L73.3096 92.3289L73.253 92.0695L73.1963 91.7888L73.1582 91.5285L73.1388 91.2486V90.4474L73.1769 90.1872L73.2335 89.9466L73.3096 89.6864L73.3849 89.4467L73.4796 89.2062L73.5938 88.9665L73.6885 88.8261L73.8391 88.6061L74.0099 88.4058L74.1799 88.2055L74.3693 88.0249L74.5588 87.8656L74.8235 87.685L75.051 87.5446L75.2971 87.4042L75.5626 87.3041L75.8087 87.2048L76.1682 87.1046L76.4523 87.0447L76.7365 87.0045L77.0012 86.9642L77.2854 86.9446L77.5695 86.924L77.8529 86.9035H78.1184L78.4017 86.924L78.6851 86.9446L78.9701 86.9839L79.2542 87.0242L79.5376 87.0644L79.8225 87.1243L80.1067 87.1646L80.39 87.2236L80.6742 87.3041L80.9575 87.3649L81.2425 87.4445L81.508 87.5249L81.7906 87.6054L81.9233 87.6456V85.5629L81.6027 85.4628L81.3372 85.3635L81.0522 85.283L80.7697 85.2231L80.5034 85.1623L80.2192 85.1024L79.9359 85.0425L79.4234 84.9629L79.1409 84.9226L78.8559 84.8824L78.5734 84.8627L78.2892 84.8422L78.0237 84.8225H76.5851L76.3009 84.8422L76.0168 84.8627L75.7326 84.9029L75.4679 84.9415L75.2024 84.9817L74.9182 85.0622L74.6535 85.1426L74.294 85.2428L74.0293 85.3233L73.7824 85.4226L73.5177 85.5433L73.291 85.6631L73.0449 85.7829L72.8174 85.943L72.5899 86.0825L72.3252 86.2837L72.1171 86.4635L71.9091 86.6441L71.7188 86.8444L71.5302 87.0644L71.3408 87.2639L71.1894 87.4847L71.038 87.7244L70.8858 87.9658L70.7538 88.2055L70.5838 88.5453L70.4883 88.7867L70.3936 89.0666L70.2989 89.3269L70.243 89.6068L70.1669 89.8876L70.1289 90.1675L70.0908 90.4474L70.0722 90.8078V91.3685L70.1102 91.6484L70.1475 91.9488L70.1855 92.2288L70.2616 92.5087L70.3183 92.7895L70.413 93.0497L70.5069 93.3099L70.6397 93.6104L70.7538 93.8706L70.8858 94.1103L71.0186 94.3517L71.17 94.5914L71.3408 94.8114L71.4922 95.0322L71.6808 95.2317L71.9091 95.4525L72.1358 95.6323L72.3632 95.7924L72.6085 95.9524L72.8555 96.0928L73.1008 96.2332L73.3477 96.3728L73.6124 96.4729L73.8585 96.5936L74.124 96.6938L74.4268 96.7931L74.7102 96.8538L74.9943 96.9138L75.2785 96.954L75.5626 96.9942L75.8468 97.0336L76.1496 97.0533L76.4143 97.0935L76.7171 97.1132H77.0012L77.4934 97.1338L77.7776 97.1132H78.0423L78.3265 97.0935L78.6284 97.073L78.9134 97.0533L79.1975 97.0139L79.4809 96.9728L79.765 96.9334L80.0686 96.9138L80.3325 96.8538L80.6175 96.8136L80.9009 96.7528L81.185 96.6938L81.4684 96.6535L81.7525 96.5731L82.0375 96.4935L82.3208 96.4327L82.605 96.3531L82.8519 96.2726V89.8876H77.8723V89.8876ZM89.1559 70.8291L89.3648 70.8497L89.6093 70.9096L89.7995 70.9695L89.9509 71.0294L90.1201 71.1296L90.2529 71.2298L90.3856 71.3496L90.5184 71.49L90.652 71.6706L90.7273 71.8504L90.8034 72.0104L90.8398 72.1902L90.8779 72.3905V72.6713L90.86 72.8511L90.8228 73.0111L90.7653 73.1918L90.6706 73.351L90.5565 73.5119L90.4431 73.672L90.2529 73.8517L90.0837 73.9724L89.8942 74.0726L89.7048 74.1325L89.5146 74.2121L89.3267 74.2524L89.1179 74.2729H87.2446L87.149 74.2926L87.0357 74.3328L86.9596 74.3525L86.8649 74.4124L86.7888 74.4929L86.7321 74.5725L86.6941 74.6127L85.8432 76.2546L88.5309 76.234L91.2575 80.5381H94.4763L91.3523 75.5133L91.6162 75.4337L91.8437 75.3335L92.0711 75.2128L92.3739 75.0527L92.582 74.9132L92.7722 74.7737L92.9617 74.6127L93.1309 74.433L93.2831 74.2327L93.4725 73.9724L93.6053 73.7721L93.7178 73.5521L93.7931 73.3313L93.8692 73.1318L93.9258 72.911L93.9453 72.6507L93.9639 72.4102V72.2304L93.9453 71.9908L93.9072 71.7502L93.8506 71.5097L93.7745 71.27L93.7 71.0294L93.5866 70.7889L93.4539 70.5689L93.3017 70.3489L93.1495 70.1486L92.9811 69.9688L92.8103 69.7882L92.62 69.6281L92.4112 69.4681L92.2047 69.3482L91.9764 69.2275L91.7489 69.1274L91.5231 69.0478L91.2948 68.9673L91.0487 68.9074L90.8034 68.8877L90.5565 68.8671L90.3104 68.8475L90.1015 68.8671H82.1136V80.5381H84.9907V70.8291L88.9851 70.8095L89.1559 70.8291V70.8291ZM102.825 68.1464L104.397 66.2246H101.707L100.817 68.1464H102.825V68.1464ZM132.358 80.5783H135.256V70.9695H138.493L138.588 70.949L138.702 70.9293L138.776 70.9096L138.852 70.8694L138.909 70.8291L138.947 70.7692L139.004 70.7093L139.023 70.6485L139.06 70.5689L139.08 70.5287L139.098 70.509L139.629 68.9271H129.216L129.121 68.9673L129.045 68.9878L128.97 69.0478L128.894 69.1077L128.837 69.1676L128.78 69.2472L128.742 69.3277L128.725 69.3679L127.986 70.9695H132.358V80.5783V80.5783ZM94.4763 91.6689L94.7022 91.5885L94.9305 91.5089L95.1394 91.389L95.4219 91.2281L95.6122 91.1082L95.7822 90.9482L95.9514 90.7881L96.1036 90.6083L96.2363 90.4072L96.3691 90.2068L96.4832 89.9869L96.5585 89.7472L96.633 89.5058L96.6905 89.2661L96.7277 89.0067L96.7472 88.7456V88.5256L96.7277 88.2654L96.6905 88.0249L96.6524 87.7852L96.5763 87.5446L96.5019 87.3246L96.3877 87.0841L96.293 86.924L96.1602 86.704L96.0088 86.5046L95.838 86.3239L95.6688 86.1433L95.3839 85.9233L95.1564 85.7829L94.9305 85.6631L94.6836 85.5433L94.2869 85.4029L94.0214 85.3233L93.7364 85.2625L93.4725 85.2026L93.207 85.1623L92.9236 85.1221L92.6395 85.1024L92.3545 85.0827H85.2927V96.7734H88.1901V87.2048H92.0525L92.1853 87.2236L92.3739 87.2442L92.5634 87.2844L92.7342 87.3443L92.9617 87.465L93.1122 87.5446L93.2256 87.6456L93.3397 87.7449L93.4539 87.9247L93.5292 88.0848L93.6053 88.2654L93.6603 88.4452L93.7 88.6061L93.7178 88.7653V88.8655L93.7 89.0264L93.6797 89.2062L93.6239 89.3465L93.5486 89.5263L93.4539 89.7069L93.3397 89.8473L93.1495 90.0673L92.9811 90.1675L92.8103 90.2873L92.6395 90.3669L92.4306 90.4474L92.242 90.4876L92.0525 90.5279H90.1962L90.1201 90.5475L90.0464 90.5878L89.9509 90.628L89.8756 90.6674L89.7995 90.7273L89.7234 90.7881L89.6668 90.848L89.6093 90.9079L89.572 90.9884L88.8143 92.489H91.3328L94.2294 96.7734H97.3713L94.2108 91.7485L94.4763 91.6689V91.6689ZM60.7388 85.0622L55.1156 96.7734H58.2211L59.3755 94.1308H62.7449L62.8776 94.0906L63.0104 94.0512L63.1238 93.9913L63.2379 93.9108L63.3318 93.8107L63.4265 93.7114L63.5026 93.5907L63.5212 93.5505L64.3923 92.0293H60.2838L62.5935 86.9035L66.7587 96.734H69.7508L64.6384 85.0622H60.7388V85.0622ZM126.698 68.8877H123.877V80.5783H126.698V68.8877ZM70.3369 78.8766L70.5458 79.0769L70.7538 79.2566L70.9619 79.4373L71.1894 79.5973L71.4161 79.7574L71.6436 79.9175L71.8897 80.0579L72.1358 80.1777L72.3252 80.2582L72.5899 80.3387L72.8555 80.438L73.1202 80.5176L73.4043 80.598L73.6691 80.6588L73.9532 80.6982L74.2179 80.759L74.5588 80.7983L74.8429 80.8189L75.1271 80.8386H75.4112L75.6946 80.8583H75.9787L76.2629 80.8386L76.6798 80.8189L76.9632 80.7983L77.2473 80.7786L77.5129 80.7384L77.7962 80.6982L78.0617 80.6383L78.3265 80.5783L78.6114 80.5176L78.8753 80.4585L79.1595 80.3583L79.4234 80.2984L79.6898 80.1974L79.9553 80.0973L80.1625 80.0373V77.8357L80.05 77.8956L79.7845 77.9957L79.5189 78.1164L79.2542 78.196L78.9887 78.2962L78.7231 78.3767L78.4398 78.4366L78.0423 78.5162L77.7962 78.5564L77.5129 78.5967L77.2473 78.636L76.9826 78.6566L76.6984 78.6763H76.1309L75.8654 78.6968L75.6193 78.6763L75.3546 78.6566L75.1077 78.6163L74.8429 78.5564L74.5968 78.4768L74.3127 78.3963L74.086 78.3159L73.8585 78.2157L73.6504 78.0959L73.4416 77.9555L73.253 77.816L73.0635 77.6559L72.8174 77.4154L72.666 77.215L72.5146 77.0147L72.3632 76.7947L72.2499 76.5747L72.1544 76.3342L72.0597 76.0945L71.9658 75.7136L71.9091 75.4534L71.871 75.1726V74.3731L71.9091 74.112L71.9658 73.7319L72.0216 73.4914L72.0977 73.2311L72.1738 72.9914L72.2872 72.7706L72.4013 72.5506L72.5899 72.2707L72.7599 72.0704L72.9307 71.8897L73.1388 71.71L73.3282 71.5499L73.5363 71.3898L73.8771 71.1895L74.1046 71.0688L74.3693 70.9695L74.6154 70.8891L74.881 70.8095L75.2404 70.729L75.506 70.7093L75.7901 70.6691H76.6223L77.0206 70.6888L77.304 70.7093L77.5881 70.7487L77.8723 70.7889L78.1184 70.8291L78.4017 70.8891L78.6681 70.949L78.9506 71.0294L79.217 71.0894L79.4809 71.1895L79.7464 71.27L79.8792 71.3299L80.1998 71.4301L80.2192 69.2472L80.05 69.2078L79.7845 69.1274L79.5189 69.0281L79.2356 68.9476L78.9701 68.8877L78.6851 68.8072L78.4212 68.7473L78.137 68.6874L77.8156 68.6275L77.5315 68.5872L77.2659 68.547L76.9826 68.5068L76.6984 68.4871L76.4143 68.4665H75.3165L75.051 68.4871L74.7668 68.5068L74.4835 68.547L74.2179 68.5872L73.9532 68.6471L73.6885 68.7071L73.423 68.7875L73.1582 68.8671L72.8555 68.9673L72.6085 69.0674L72.3632 69.1676L72.0977 69.2874L71.871 69.4278L71.6249 69.5682L71.3974 69.7086L71.17 69.8687L70.9619 70.0484L70.7538 70.2291L70.5644 70.4088L70.375 70.6091L70.1855 70.8095L70.0155 71.0294L69.8447 71.2494L69.6933 71.49L69.5419 71.71L69.4286 71.9702L69.2958 72.2108L69.1444 72.5908L69.0497 72.8511L68.9744 73.1113L68.8983 73.3912L68.8417 73.672L68.785 73.9528L68.7656 74.3525L68.7469 74.6333V75.1931L68.785 75.473L68.8222 75.7538L68.8603 76.0337L68.9364 76.294L69.0117 76.5747L69.1444 76.9745L69.2578 77.2356L69.3719 77.4753L69.5039 77.7355L69.6367 77.976L69.788 78.196L69.9394 78.416L70.1102 78.6566L70.3369 78.8766V78.8766ZM99.4729 96.7734H102.389V85.1024H99.4916L99.4729 96.7734V96.7734ZM134.29 85.1024H131.583V96.7734H140.198L141.029 94.6915H134.29V85.1024V85.1024ZM107.956 78.5367H99.1143V70.8694H107.539L106.838 68.8671H96.3124V80.5381H107.009L107.956 78.5367V78.5367ZM148.47 94.6513H144.892V87.1046H153.317L152.654 85.0622H141.995V96.7528H152.882L153.753 94.6513H148.47V94.6513Z" fill="black"/>
<path fill-rule="evenodd" clip-rule="evenodd" d="M146.937 89.7869L146.86 89.8066H146.766L146.652 89.8271L146.558 89.8665L146.482 89.9273L146.388 89.9863L146.312 90.0668L146.293 90.107L145.196 91.8276H150.023L150.099 91.8079L150.193 91.7882L150.287 91.748L150.382 91.7086L150.458 91.6478L150.533 91.5682L150.571 91.5083L151.744 89.7869H146.937V89.7869ZM130.523 90.547L130.504 90.2662L130.466 90.0463L130.428 89.7663L130.371 89.5053L130.295 89.2262L130.219 88.9651L130.107 88.7049L130.012 88.4438L129.879 88.2041L129.746 87.9645L129.576 87.7239L129.406 87.5039L129.236 87.2831L129.046 87.0631L128.857 86.8636L128.649 86.6633L128.441 86.4827L128.194 86.3029L127.968 86.142L127.721 85.9819L127.474 85.8416L127.21 85.7217L126.963 85.5813L126.716 85.4812L126.452 85.381L126.187 85.2817L125.923 85.2013L125.657 85.1208L125.372 85.0609L125.108 85.001L124.823 84.941L124.54 84.9222L124.275 84.9025L124.009 84.8828H123.764L123.669 84.8631H123.536L123.309 84.8828H123.081L122.817 84.9025L122.552 84.9222L122.268 84.941L122.003 84.9813L121.718 85.0412L121.454 85.1011L121.189 85.161L120.923 85.2415L120.659 85.322L120.412 85.4213L120.167 85.542L119.901 85.6626L119.674 85.7825L119.408 85.9631L119.201 86.1026L118.974 86.2833L118.766 86.463L118.557 86.6436L118.368 86.8439L118.179 87.0639L118.009 87.2634L117.82 87.5245L117.668 87.7445L117.516 87.9841L117.383 88.2247L117.27 88.4849L117.176 88.7451L117.061 89.0062L116.985 89.2861L116.891 89.6662L116.853 89.9461L116.815 90.2474L116.776 90.5273V91.3277L116.815 91.6282L116.833 91.9081L116.89 92.188L116.946 92.4688L117.003 92.729L117.098 93.0294L117.193 93.3094L117.307 93.5704L117.419 93.8101L117.552 94.0703L117.704 94.3109L117.932 94.6713L118.101 94.8913L118.29 95.0916L118.48 95.3116L118.669 95.511L118.876 95.6916L119.123 95.8919L119.351 96.052L119.577 96.1924L119.824 96.3525L120.071 96.4732L120.334 96.6135L120.581 96.7128L120.847 96.8335L121.206 96.9337L121.471 97.0142L121.754 97.0732L122.039 97.1331L122.303 97.1734L122.588 97.2136L122.854 97.2333L123.137 97.2735H123.422L123.669 97.2932H123.971L124.256 97.2735L124.541 97.2538L124.824 97.2341L125.09 97.1939L125.544 97.1134L125.809 97.0535L126.073 96.9945L126.339 96.914L126.604 96.8335L126.868 96.7128L127.115 96.6135L127.361 96.4928L127.721 96.2934L127.968 96.153L128.194 96.0126L128.403 95.8525L128.611 95.6719L128.819 95.4913L129.008 95.2919L129.197 95.0924L129.444 94.7714L129.595 94.5317L129.747 94.2921L129.88 94.031L129.994 93.7913L130.108 93.5311L130.201 93.2511L130.296 92.9901L130.353 92.7102L130.429 92.4302L130.467 92.1503L130.505 91.8696L130.543 91.5691L130.562 91.2892V91.1283L130.543 90.8483L130.523 90.547ZM127.417 91.0469V91.2875L127.399 91.5674L127.361 91.8473L127.324 92.0681L127.267 92.3481L127.211 92.628L127.116 92.8891L127.021 93.1493L126.927 93.4095L126.794 93.6706L126.661 93.8906L126.492 94.09L126.321 94.2706L126.15 94.4513L125.961 94.631L125.735 94.7706L125.526 94.9109L125.299 95.0111L125.073 95.0916L124.845 95.172L124.618 95.2311L124.259 95.291L123.994 95.3107H123.501L123.236 95.2705L122.991 95.2302L122.744 95.1712L122.497 95.0907L122.251 95.0102L122.005 94.9101L121.72 94.75L121.512 94.6096L121.323 94.4496L121.133 94.2689L120.963 94.0883L120.699 93.7485L120.566 93.549L120.452 93.3282L120.338 93.0885L120.243 92.8488L120.148 92.5877L120.074 92.3275L120.017 92.0673L119.96 91.6872L119.922 91.4073V90.8663L119.96 90.5265L119.998 90.2252L120.037 89.9452L120.093 89.685L120.169 89.4051L120.262 89.1646L120.357 88.9043L120.49 88.6844L120.604 88.4438L120.775 88.2444L120.925 88.0441L121.096 87.8643L121.286 87.7034L121.569 87.4834L121.778 87.3627L122.005 87.242L122.233 87.1427L122.459 87.0622L122.686 87.0023L123.064 86.9432L123.425 86.9022H123.671L123.786 86.8825L124.164 86.9227L124.618 87.0032L124.845 87.0631L125.092 87.1435L125.318 87.2428L125.527 87.343L125.754 87.4834L125.944 87.6229L126.132 87.7838L126.321 87.9645L126.492 88.1442L126.661 88.3445L126.794 88.5645L126.927 88.7854L127.021 89.025L127.116 89.2647L127.211 89.5044L127.267 89.7449L127.304 89.9444L127.342 90.2243L127.38 90.5051L127.418 90.7653V91.0469H127.417V91.0469ZM101.291 73.6512H101.197L101.082 73.6717L100.95 73.6914L100.857 73.7513L100.742 73.7916L100.667 73.872L100.572 73.9722L99.3985 75.6534H104.075L104.188 75.6328L104.302 75.6131L104.397 75.5729L104.509 75.513L104.604 75.4334L104.68 75.3735L104.755 75.2733L104.813 75.2125L105.835 73.6512H101.291ZM117.29 80.3383L117.668 80.2381L117.933 80.1371L118.179 80.037L118.426 79.9368L118.672 79.7964L119.05 79.5764L119.278 79.4361L119.485 79.2965L119.713 79.1356L119.902 78.9558L120.092 78.7555L120.261 78.5758L120.488 78.295L120.64 78.075L120.773 77.8542L120.904 77.6145L121.037 77.3542L121.132 77.094L121.246 76.7936L121.303 76.4931L121.379 76.2132L121.435 75.9324L121.474 75.6525L121.492 75.3726L121.511 75.0721L121.529 74.8119L121.548 74.5517V74.3317L121.529 74.0715L121.491 73.7907L121.453 73.5108L121.397 73.2506L121.32 72.9706L121.244 72.7104L121.15 72.4502L121.036 72.19L120.921 71.9494L120.79 71.7089L120.638 71.4684L120.449 71.1884L120.278 70.9684L120.09 70.7681L119.901 70.5678L119.692 70.3881L119.483 70.2477L119.276 70.0876L119.067 69.9472L118.839 69.8077L118.632 69.687L118.404 69.5663L118.177 69.4662L117.932 69.366L117.704 69.2855L117.457 69.2051L117.231 69.1246L116.985 69.0647L116.738 69.0048L116.492 68.9645L116.265 68.9243L116.018 68.9046L115.792 68.8849L115.545 68.8652H115.469L115.317 68.8849H109.466V80.5557H115.942L116.207 80.536L116.473 80.4958L116.737 80.4564L117.022 80.3965L117.29 80.3383V80.3383ZM116.608 78.3558L116.381 78.4362L116.153 78.4962L115.926 78.5364L115.7 78.5758H112.31V70.8289H115.094L115.358 70.8486H115.472L115.605 70.8683L115.833 70.9282L116.078 70.9881L116.305 71.0677L116.533 71.1679L116.759 71.2886L116.968 71.4084L117.176 71.5488L117.384 71.7089L117.554 71.8887L117.707 72.029L117.877 72.2285L118.01 72.4288L118.141 72.6488L118.236 72.8688L118.35 73.1093L118.426 73.3293L118.483 73.5895L118.521 73.7496L118.578 74.0098L118.616 74.2701V75.0105L118.578 75.2707L118.54 75.531L118.464 75.7912L118.407 76.0112L118.331 76.2714L118.236 76.5316L118.122 76.7722L117.991 77.0119L117.858 77.2524L117.706 77.4724L117.554 77.6727L117.401 77.8524L117.214 77.9928L117.024 78.1332L116.815 78.2531L116.608 78.3558V78.3558ZM115.471 94.2501L115.263 94.3306L114.979 94.411L114.714 94.4906L114.431 94.5702L114.146 94.631L113.881 94.691L113.597 94.7509L113.313 94.7706L113.068 94.8108L112.783 94.851L112.517 94.8707L112.253 94.8913H111.969L111.703 94.8707L111.42 94.851L111.06 94.8305L110.815 94.7902L110.549 94.7509L110.321 94.691L110.077 94.5908L109.848 94.5103L109.583 94.3708L109.357 94.2501L109.167 94.1097L108.959 93.9702L108.768 93.8101L108.542 93.5499L108.391 93.3496L108.239 93.1493L108.106 92.9293L107.992 92.7093L107.899 92.4688L107.786 92.069L107.728 91.7882L107.709 91.5083L107.69 91.2481V90.9682L107.709 90.6874L107.728 90.4272L107.766 90.167L107.804 89.9059L107.88 89.6662L107.956 89.4265L108.049 89.2057L108.201 88.9257L108.334 88.7058L108.486 88.4849L108.657 88.3051L108.826 88.1245L109.015 87.9439L109.224 87.7847L109.45 87.6452L109.678 87.5245L109.924 87.4038L110.171 87.3036L110.417 87.2232L110.701 87.1641L110.965 87.1239L111.23 87.0836L111.515 87.0639L111.779 87.0442L112.14 87.0639L112.404 87.0836L112.708 87.1239L112.992 87.1444L113.256 87.2043L113.541 87.2437L113.824 87.3036L114.09 87.3841L114.374 87.4645L114.638 87.5442L114.923 87.6238L115.186 87.7239L115.452 87.8249H115.471L115.775 87.9439V85.702L115.68 85.6626L115.471 85.5822L115.414 85.5625L115.15 85.4623L114.866 85.363L114.6 85.2826L114.26 85.2021L113.995 85.1422L113.71 85.0823L113.427 85.042L113.142 85.0018L112.593 84.941L112.309 84.9222L112.026 84.9025L111.741 84.882L111.401 84.8623H110.851L110.568 84.882L110.284 84.9025L109.848 84.9624L109.564 85.0018L109.3 85.0617L109.035 85.1217L108.768 85.2021L108.524 85.3023L108.182 85.4418L107.937 85.5428L107.69 85.6832L107.463 85.8227L107.217 85.9631L107.009 86.1232L106.744 86.3432L106.535 86.5229L106.346 86.7036L106.137 86.903L105.967 87.1239L105.798 87.3438L105.551 87.664L105.399 87.9242L105.266 88.1648L105.133 88.4258L105.04 88.6852L104.946 88.8855L104.851 89.1654L104.775 89.4265L104.718 89.7064L104.661 89.9863L104.604 90.4469L104.585 90.7268V91.2883L104.604 91.6478L104.642 91.9286L104.699 92.2085L104.755 92.4884L104.813 92.7692L104.946 93.1296L105.04 93.3898L105.153 93.6492L105.286 93.8906L105.418 94.15L105.608 94.4701L105.779 94.691L105.948 94.9109L106.119 95.1309L106.327 95.3312L106.593 95.5709L106.8 95.7515L107.028 95.9322L107.255 96.0717L107.519 96.2523L107.766 96.3721L108.03 96.4928L108.296 96.593L108.542 96.6931L108.806 96.7728L109.338 96.8926L109.621 96.9328L109.906 96.9722L110.188 97.0133L110.473 97.033L110.91 97.0527L111.193 97.0724H111.76L112.045 97.0527H112.33L112.632 97.0133L112.897 96.9936L113.142 96.9722L113.427 96.9328L113.71 96.8926L113.995 96.8327L114.26 96.7728L114.543 96.6931L114.828 96.6127L115.093 96.5322L115.357 96.4526L115.471 96.4124L115.49 96.3918L115.794 96.2925L115.813 94.1097L115.528 94.2304L115.471 94.2501V94.2501Z" fill="black"/>
<path fill-rule="evenodd" clip-rule="evenodd" d="M53.9231 81.0792V75.1531L49.9854 77.5157L46.1797 79.7781L42.6201 81.8591L39.3826 83.7217L36.4674 85.3635L33.855 86.7845L31.47 88.0051L29.3295 89.0263L27.3226 89.9277L25.4113 90.6673L23.5177 91.3281L21.6816 91.8888L19.8447 92.3493L18.0653 92.7499L16.3806 93.0496L14.7899 93.2892L13.3699 93.4502L12.1021 93.5306L11.0416 93.5905L10.1138 93.5503L8.7133 93.3902L7.7475 93.1497L7.04723 92.8501L6.47892 92.4495L6.02476 91.989L5.66532 91.448L5.45645 90.8479L5.38035 90.1477L5.45645 89.3063L5.7406 88.3458L6.19477 87.3041L6.80032 86.2435L7.55806 85.1829L8.40972 84.1608L9.28081 83.221L10.1705 82.4009L11.1355 81.5997L12.2155 80.7385L13.3326 79.9579L14.411 79.2568L15.5282 78.5968L16.6834 77.9762L17.8378 77.4352L19.0117 76.9345L20.1289 76.5347L21.17 76.1949L22.0977 75.974L22.9494 75.8345L23.8019 75.7943L24.6916 75.8739L25.1644 75.9338L24.9191 75.0136L24.4835 73.4523L24.1427 72.3506L23.878 71.6906L23.6691 71.3302L23.461 71.1094L23.2336 70.9493L22.8741 70.8098L22.3058 70.749L21.4922 70.7893L20.4697 70.9296L19.3145 71.1899L18.122 71.5502L16.8729 72.0305L15.6609 72.5714L14.5057 73.1321L13.3893 73.7519L12.2907 74.4127L11.1744 75.1531L10.0191 75.974L8.88331 76.8352L7.87946 77.6963L6.98975 78.477L6.19477 79.2774L5.4184 80.1179L4.6987 81.039L4.03648 81.9994L3.44955 82.9804L2.97596 84.0419L2.59709 85.1024L2.38984 86.1836L2.29431 87.2236L2.37041 88.3458L2.55985 89.5262L2.86262 90.7075L3.26012 91.828L3.71428 92.8501L4.24454 93.7506L4.86952 94.6314L5.58922 95.4318L6.36477 96.1329L7.19781 96.7338L8.12637 97.2131L9.22414 97.6343L10.53 98.0144L11.9313 98.2754L13.3699 98.4346L14.7899 98.4749L16.1532 98.3944L17.3837 98.2943L18.5575 98.1145L19.7314 97.8937L20.9053 97.654L22.003 97.3741L23.0822 97.0933L24.2188 96.7338L25.3918 96.3725L26.5657 95.9728L27.759 95.5328L28.9515 95.0517L30.144 94.551L31.3364 94.0108L32.5483 93.4099L33.8355 92.7499L34.5747 92.3288L35.5397 91.7887L36.8649 91.0277L38.7957 89.9277L41.4656 88.3647L45.0058 86.3034L49.2471 83.8005L53.9231 81.0792V81.0792Z" fill="#4284B5"/>
</svg>
