<svg width="469" height="283" viewBox="0 0 469 283" fill="none" xmlns="http://www.w3.org/2000/svg">
<rect x="150.023" width="161.976" height="99.9968" fill="url(#paint0_linear_45_579)"/>
<rect x="150.023" width="161.976" height="99.9968" stroke="#5E5E5E"/>
<g filter="url(#filter0_d_45_579)">
<path d="M230.885 45.8472L311.999 0.25209H149.771L230.885 45.8472Z" fill="url(#paint1_linear_45_579)" shape-rendering="crispEdges"/>
</g>
<rect x="132.189" width="259.175" height="85.1196" transform="rotate(45.3929 132.189 0)" fill="url(#paint2_linear_45_579)"/>
<path d="M221 186C221 218.033 195.033 244 163 244C130.967 244 105 218.033 105 186C105 153.967 130.967 128 163 128C195.033 128 221 153.967 221 186Z" fill="url(#paint3_radial_45_579)"/>
<path d="M66.6187 218.4C66.6187 214.933 67.3688 211.85 68.8688 209.15C70.3688 206.417 72.4521 204.3 75.1188 202.8C77.8188 201.267 80.8688 200.5 84.2688 200.5C88.4354 200.5 92.0021 201.6 94.9688 203.8C97.9354 206 99.9188 209 100.919 212.8H91.5188C90.8188 211.333 89.8188 210.217 88.5188 209.45C87.2521 208.683 85.8021 208.3 84.1688 208.3C81.5354 208.3 79.4021 209.217 77.7688 211.05C76.1354 212.883 75.3188 215.333 75.3188 218.4C75.3188 221.467 76.1354 223.917 77.7688 225.75C79.4021 227.583 81.5354 228.5 84.1688 228.5C85.8021 228.5 87.2521 228.117 88.5188 227.35C89.8188 226.583 90.8188 225.467 91.5188 224H100.919C99.9188 227.8 97.9354 230.8 94.9688 233C92.0021 235.167 88.4354 236.25 84.2688 236.25C80.8688 236.25 77.8188 235.5 75.1188 234C72.4521 232.467 70.3688 230.35 68.8688 227.65C67.3688 224.95 66.6187 221.867 66.6187 218.4ZM104.455 222C104.455 219.133 104.988 216.617 106.055 214.45C107.155 212.283 108.638 210.617 110.505 209.45C112.371 208.283 114.455 207.7 116.755 207.7C118.721 207.7 120.438 208.1 121.905 208.9C123.405 209.7 124.555 210.75 125.355 212.05V208.1H133.905V236H125.355V232.05C124.521 233.35 123.355 234.4 121.855 235.2C120.388 236 118.671 236.4 116.705 236.4C114.438 236.4 112.371 235.817 110.505 234.65C108.638 233.45 107.155 231.767 106.055 229.6C104.988 227.4 104.455 224.867 104.455 222ZM125.355 222.05C125.355 219.917 124.755 218.233 123.555 217C122.388 215.767 120.955 215.15 119.255 215.15C117.555 215.15 116.105 215.767 114.905 217C113.738 218.2 113.155 219.867 113.155 222C113.155 224.133 113.738 225.833 114.905 227.1C116.105 228.333 117.555 228.95 119.255 228.95C120.955 228.95 122.388 228.333 123.555 227.1C124.755 225.867 125.355 224.183 125.355 222.05ZM157.09 207.8C160.357 207.8 162.957 208.867 164.89 211C166.857 213.1 167.84 216 167.84 219.7V236H159.34V220.85C159.34 218.983 158.857 217.533 157.89 216.5C156.924 215.467 155.624 214.95 153.99 214.95C152.357 214.95 151.057 215.467 150.09 216.5C149.124 217.533 148.64 218.983 148.64 220.85V236H140.09V208.1H148.64V211.8C149.507 210.567 150.674 209.6 152.14 208.9C153.607 208.167 155.257 207.8 157.09 207.8ZM172.082 222C172.082 219.133 172.615 216.617 173.682 214.45C174.782 212.283 176.265 210.617 178.132 209.45C179.998 208.283 182.082 207.7 184.382 207.7C186.215 207.7 187.882 208.083 189.382 208.85C190.915 209.617 192.115 210.65 192.982 211.95V199H201.532V236H192.982V232C192.182 233.333 191.032 234.4 189.532 235.2C188.065 236 186.348 236.4 184.382 236.4C182.082 236.4 179.998 235.817 178.132 234.65C176.265 233.45 174.782 231.767 173.682 229.6C172.615 227.4 172.082 224.867 172.082 222ZM192.982 222.05C192.982 219.917 192.382 218.233 191.182 217C190.015 215.767 188.582 215.15 186.882 215.15C185.182 215.15 183.732 215.767 182.532 217C181.365 218.2 180.782 219.867 180.782 222C180.782 224.133 181.365 225.833 182.532 227.1C183.732 228.333 185.182 228.95 186.882 228.95C188.582 228.95 190.015 228.333 191.182 227.1C192.382 225.867 192.982 224.183 192.982 222.05ZM212.017 205.2C210.517 205.2 209.284 204.767 208.317 203.9C207.384 203 206.917 201.9 206.917 200.6C206.917 199.267 207.384 198.167 208.317 197.3C209.284 196.4 210.517 195.95 212.017 195.95C213.484 195.95 214.684 196.4 215.617 197.3C216.584 198.167 217.067 199.267 217.067 200.6C217.067 201.9 216.584 203 215.617 203.9C214.684 204.767 213.484 205.2 212.017 205.2ZM216.267 208.1V236H207.717V208.1H216.267ZM220.763 222C220.763 219.133 221.297 216.617 222.363 214.45C223.463 212.283 224.947 210.617 226.813 209.45C228.68 208.283 230.763 207.7 233.063 207.7C234.897 207.7 236.563 208.083 238.063 208.85C239.597 209.617 240.797 210.65 241.663 211.95V199H250.213V236H241.663V232C240.863 233.333 239.713 234.4 238.213 235.2C236.747 236 235.03 236.4 233.063 236.4C230.763 236.4 228.68 235.817 226.813 234.65C224.947 233.45 223.463 231.767 222.363 229.6C221.297 227.4 220.763 224.867 220.763 222ZM241.663 222.05C241.663 219.917 241.063 218.233 239.863 217C238.697 215.767 237.263 215.15 235.563 215.15C233.863 215.15 232.413 215.767 231.213 217C230.047 218.2 229.463 219.867 229.463 222C229.463 224.133 230.047 225.833 231.213 227.1C232.413 228.333 233.863 228.95 235.563 228.95C237.263 228.95 238.697 228.333 239.863 227.1C241.063 225.867 241.663 224.183 241.663 222.05ZM254.699 222C254.699 219.133 255.232 216.617 256.299 214.45C257.399 212.283 258.882 210.617 260.749 209.45C262.615 208.283 264.699 207.7 266.999 207.7C268.965 207.7 270.682 208.1 272.149 208.9C273.649 209.7 274.799 210.75 275.599 212.05V208.1H284.149V236H275.599V232.05C274.765 233.35 273.599 234.4 272.099 235.2C270.632 236 268.915 236.4 266.949 236.4C264.682 236.4 262.615 235.817 260.749 234.65C258.882 233.45 257.399 231.767 256.299 229.6C255.232 227.4 254.699 224.867 254.699 222ZM275.599 222.05C275.599 219.917 274.999 218.233 273.799 217C272.632 215.767 271.199 215.15 269.499 215.15C267.799 215.15 266.349 215.767 265.149 217C263.982 218.2 263.399 219.867 263.399 222C263.399 224.133 263.982 225.833 265.149 227.1C266.349 228.333 267.799 228.95 269.499 228.95C271.199 228.95 272.632 228.333 273.799 227.1C274.999 225.867 275.599 224.183 275.599 222.05ZM305.884 228.75V236H301.534C298.434 236 296.018 235.25 294.284 233.75C292.551 232.217 291.684 229.733 291.684 226.3V215.2H288.284V208.1H291.684V201.3H300.234V208.1H305.834V215.2H300.234V226.4C300.234 227.233 300.434 227.833 300.834 228.2C301.234 228.567 301.901 228.75 302.834 228.75H305.884ZM338.197 208.1V236H329.647V232.2C328.78 233.433 327.597 234.433 326.097 235.2C324.63 235.933 322.997 236.3 321.197 236.3C319.064 236.3 317.18 235.833 315.547 234.9C313.914 233.933 312.647 232.55 311.747 230.75C310.847 228.95 310.397 226.833 310.397 224.4V208.1H318.897V223.25C318.897 225.117 319.38 226.567 320.347 227.6C321.314 228.633 322.614 229.15 324.247 229.15C325.914 229.15 327.23 228.633 328.197 227.6C329.164 226.567 329.647 225.117 329.647 223.25V208.1H338.197ZM352.888 212.75C353.888 211.217 355.138 210.017 356.638 209.15C358.138 208.25 359.805 207.8 361.638 207.8V216.85H359.288C357.155 216.85 355.555 217.317 354.488 218.25C353.422 219.15 352.888 220.75 352.888 223.05V236H344.338V208.1H352.888V212.75ZM392.025 221.6C392.025 222.4 391.975 223.233 391.875 224.1H372.525C372.658 225.833 373.208 227.167 374.175 228.1C375.175 229 376.392 229.45 377.825 229.45C379.958 229.45 381.442 228.55 382.275 226.75H391.375C390.908 228.583 390.058 230.233 388.825 231.7C387.625 233.167 386.108 234.317 384.275 235.15C382.442 235.983 380.392 236.4 378.125 236.4C375.392 236.4 372.958 235.817 370.825 234.65C368.692 233.483 367.025 231.817 365.825 229.65C364.625 227.483 364.025 224.95 364.025 222.05C364.025 219.15 364.608 216.617 365.775 214.45C366.975 212.283 368.642 210.617 370.775 209.45C372.908 208.283 375.358 207.7 378.125 207.7C380.825 207.7 383.225 208.267 385.325 209.4C387.425 210.533 389.058 212.15 390.225 214.25C391.425 216.35 392.025 218.8 392.025 221.6ZM383.275 219.35C383.275 217.883 382.775 216.717 381.775 215.85C380.775 214.983 379.525 214.55 378.025 214.55C376.592 214.55 375.375 214.967 374.375 215.8C373.408 216.633 372.808 217.817 372.575 219.35H383.275Z" fill="white"/>
<defs>
<filter id="filter0_d_45_579" x="145.771" y="0.252197" width="170.229" height="53.595" filterUnits="userSpaceOnUse" color-interpolation-filters="sRGB">
<feFlood flood-opacity="0" result="BackgroundImageFix"/>
<feColorMatrix in="SourceAlpha" type="matrix" values="0 0 0 0 0 0 0 0 0 0 0 0 0 0 0 0 0 0 127 0" result="hardAlpha"/>
<feOffset dy="4"/>
<feGaussianBlur stdDeviation="2"/>
<feComposite in2="hardAlpha" operator="out"/>
<feColorMatrix type="matrix" values="0 0 0 0 0 0 0 0 0 0 0 0 0 0 0 0 0 0 0.25 0"/>
<feBlend mode="normal" in2="BackgroundImageFix" result="effect1_dropShadow_45_579"/>
<feBlend mode="normal" in="SourceGraphic" in2="effect1_dropShadow_45_579" result="shape"/>
</filter>
<linearGradient id="paint0_linear_45_579" x1="231.011" y1="0" x2="231.011" y2="99.9968" gradientUnits="userSpaceOnUse">
<stop stop-color="#E49D9D"/>
<stop offset="0.765625" stop-color="white" stop-opacity="0"/>
</linearGradient>
<linearGradient id="paint1_linear_45_579" x1="230.885" y1="45.8472" x2="230.885" y2="0.25209" gradientUnits="userSpaceOnUse">
<stop stop-color="#B9B8B8"/>
<stop offset="0.166667" stop-color="#C4C3C3" stop-opacity="0.84375"/>
<stop offset="1" stop-color="white" stop-opacity="0"/>
</linearGradient>
<linearGradient id="paint2_linear_45_579" x1="261.777" y1="0" x2="261.777" y2="85.1196" gradientUnits="userSpaceOnUse">
<stop stop-color="#FFD0D0"/>
<stop offset="0.239583" stop-color="#E49D9D"/>
<stop offset="0.791667" stop-color="#C4C4C4" stop-opacity="0"/>
</linearGradient>
<radialGradient id="paint3_radial_45_579" cx="0" cy="0" r="1" gradientUnits="userSpaceOnUse" gradientTransform="translate(164.853 199.607) rotate(123.459) scale(83.296)">
<stop offset="0.4375" stop-color="#E49D9D" stop-opacity="0"/>
<stop offset="1" stop-color="#FFF2F2"/>
</radialGradient>
</defs>
</svg>
