<svg width="95" height="199" viewBox="0 0 95 199" fill="none" xmlns="http://www.w3.org/2000/svg">
<path d="M77.8058 9.59961H86.7701V176.227H8.27979V142.346L77.8058 9.59961Z" fill="#FFF200"/>
<path d="M8.23828 9.56152L8.27897 142.069L77.8019 9.60159L8.23828 9.56152Z" fill="#ED1D24"/>
<path d="M86.822 7H6.40088V178.759H88.6603V7H86.822Z" stroke="white" stroke-width="12.3542"/>
<path d="M9.85186 176.197V9.5614L8.23863 11.8097H86.821L85.2077 9.5614V176.197L86.821 173.948H8.23863L9.85186 176.197ZM88.4351 176.197V7.3125H6.62451V178.446H88.4355L88.4351 176.197Z" fill="black"/>
<path d="M76.6335 11.833L6.78418 144.823L14.9016 145.338L76.0201 29.7921L76.6335 11.833Z" fill="#0095DA"/>
<path d="M67.9877 90.3997L35.8911 60.8429L70.5195 36.666L67.9877 90.3997ZM66.0079 139.576L42.2883 139.582L54.2041 110.733L66.0079 139.576Z" fill="black"/>
<path d="M48.4678 155.817C48.5208 149.012 59.2793 149.567 63.7143 155.817H48.4678Z" fill="#ED1D24"/>
<path d="M13.1764 190.688H13.1344L11.4027 194.698H15.1372L13.1764 190.688ZM10.5275 196.453L9.23398 198.78H6L12.1328 187.454H14.5119L20.4793 198.78H17.2029L15.9925 196.453H10.5275ZM30.9463 196.906H35.2845V198.779H27.8795V187.746H30.9467L30.9463 196.906ZM47.841 198.779H44.7738V189.621H41.6039V187.747H51.0127V189.621H47.841V198.779ZM61.6707 189.62V192.049H66.5524V193.922H61.6707V196.906H66.7395V198.778H58.6039V187.746H66.7395V189.62L61.6707 189.62ZM75.2474 187.454H77.4594L85.7405 195.166H85.7825V187.746H88.8494V199H86.6374L78.3549 191.288H78.3143V198.778H75.2474V187.454Z" fill="black"/>
</svg>
