<svg width="152" height="64" viewBox="0 0 152 64" fill="none" xmlns="http://www.w3.org/2000/svg">
<path fill-rule="evenodd" clip-rule="evenodd" d="M99.6673 51.3409C96.8482 52.1277 93.1773 52.4561 90.0299 52.4561C81.8329 52.4561 76.4551 48.1935 76.4551 40.3931C76.4551 32.983 81.5046 28.1969 88.8465 28.1969C90.4883 28.1969 92.2572 28.392 93.3074 28.9156V18.166H99.6673V51.3409ZM93.3074 34.4266C92.3223 33.9651 90.9468 33.7048 89.3731 33.7048C85.5039 33.7048 82.9482 36.0654 82.9482 40.1948C82.9482 44.5876 85.7022 47.0813 90.2281 47.0813C91.0119 47.0813 92.2572 47.0814 93.3074 46.818V34.4266ZM151.928 51.3409C149.109 52.1277 145.435 52.4561 142.222 52.4561C134.094 52.4561 128.651 48.1935 128.651 40.3931C128.651 32.983 133.7 28.1969 141.042 28.1969C142.746 28.1969 144.45 28.392 145.503 28.9156V18.166H151.928V51.3409ZM145.503 34.4266C144.518 33.9651 143.208 33.7048 141.631 33.7048C137.696 33.7048 135.141 36.0654 135.141 40.1948C135.141 44.5876 137.96 47.0813 142.483 47.0813C143.273 47.0813 144.453 47.0814 145.503 46.818V34.4266ZM109.701 34.4266C110.748 33.9651 112.257 33.8349 113.502 33.8349C117.437 33.8349 120.125 36.0654 120.125 40.0616C120.125 44.7858 117.108 46.9481 113.109 47.0132V52.4561H113.437C121.699 52.4561 126.619 47.9333 126.619 39.8665C126.619 32.5246 121.371 28.1969 113.635 28.1969C109.701 28.1969 105.829 29.1138 103.273 30.164V61.3067H109.701V34.4266Z" fill="#3F3F42"/>
<path fill-rule="evenodd" clip-rule="evenodd" d="M54.5535 13.9017H54.6217H54.5535ZM52.9829 13.0498L54.03 14.2301L54.6186 13.9017L52.9829 13.0498Z" fill="#DC0032"/>
<path fill-rule="evenodd" clip-rule="evenodd" d="M51.4082 12.1992L53.4404 14.5598L54.1622 14.1664L53.3753 13.2494L51.4082 12.1992Z" fill="#DC0032"/>
<path fill-rule="evenodd" clip-rule="evenodd" d="M49.7671 11.3447L52.8494 14.8856L53.5712 14.4921L51.8024 12.3918L49.7671 11.3447Z" fill="#DC0032"/>
<path fill-rule="evenodd" clip-rule="evenodd" d="M48.1929 10.4941L52.2604 15.2122L52.9821 14.8187L50.1631 11.5381L48.1929 10.4941ZM55.9995 18.8212L55.5379 19.0814L55.9964 19.608V18.8212H55.9995Z" fill="#DC0032"/>
<path fill-rule="evenodd" clip-rule="evenodd" d="M46.6226 9.63965L51.6721 15.5411L52.3908 15.1476L48.5866 10.6898L46.6226 9.63965ZM55.7364 18.9518L55.0146 19.4103L55.9967 20.5905V19.3452L55.7364 18.9518Z" fill="#DC0032"/>
<path fill-rule="evenodd" clip-rule="evenodd" d="M44.98 8.78809L51.0796 15.8698L51.8665 15.4763L47.0122 9.83826L44.98 8.78809ZM55.144 19.2805L54.4222 19.739L55.9959 21.576V20.3307L55.144 19.2805Z" fill="#DC0032"/>
<path fill-rule="evenodd" clip-rule="evenodd" d="M43.4072 7.93457L50.554 16.1965L51.2758 15.8031L45.3744 8.98474L43.4072 7.93457ZM54.5564 19.6723L53.8346 20.0658L55.9969 22.6215V21.3761L54.5564 19.6723Z" fill="#DC0032"/>
<path fill-rule="evenodd" clip-rule="evenodd" d="M41.8325 7.08301L49.9644 16.5253L50.6862 16.1318L43.7997 8.13318L41.8325 7.08301ZM53.9637 20.001L53.2419 20.3945L55.999 23.6069V22.3616L53.9637 20.001Z" fill="#DC0032"/>
<path fill-rule="evenodd" clip-rule="evenodd" d="M40.1943 6.22949L49.3733 16.8551L50.0951 16.4617L42.2265 7.27966L40.1943 6.22949ZM53.3757 20.3309L52.6539 20.7243L55.9996 24.5905V23.3451L53.3757 20.3309Z" fill="#DC0032"/>
<path fill-rule="evenodd" clip-rule="evenodd" d="M38.6201 5.38086L48.7811 17.2456L49.506 16.7902L40.5873 6.42793L38.6201 5.38086ZM52.7835 20.6564L52.0617 21.0498L55.996 25.6408V24.3955L52.7835 20.6564Z" fill="#DC0032"/>
<path fill-rule="evenodd" clip-rule="evenodd" d="M36.9814 4.52344L48.1957 17.5747L48.9144 17.1131L39.0136 5.57671L36.9814 4.52344ZM52.26 20.9823L51.4732 21.3757L55.9961 26.6235V25.372L52.26 20.9823Z" fill="#DC0032"/>
<path fill-rule="evenodd" clip-rule="evenodd" d="M35.4087 3.67285L47.6049 17.9013L48.3918 17.4428L37.4409 4.72302L35.4087 3.67285ZM51.6724 21.312L50.9475 21.7054L55.997 27.6719V26.3646L51.6724 21.312Z" fill="#DC0032"/>
<path fill-rule="evenodd" clip-rule="evenodd" d="M33.8345 2.82129L47.0809 18.23L47.7996 17.7715L35.8016 3.87146L33.8345 2.82129V2.82129ZM51.0802 21.6407L50.3584 22.0342L55.9965 28.6574V27.412L51.0802 21.6407Z" fill="#DC0032"/>
<path fill-rule="evenodd" clip-rule="evenodd" d="M32.1958 1.9043L46.4893 18.5583L47.2111 18.0999L34.228 3.01952L32.1958 1.9043ZM50.4886 21.9691L49.7668 22.3625L55.9966 29.6424V28.394L50.4886 21.9691Z" fill="#DC0032"/>
<path fill-rule="evenodd" clip-rule="evenodd" d="M30.6216 1.05078L45.9002 18.8851L46.6189 18.4917L32.6538 2.16601L30.6216 1.05078ZM49.8995 22.2958L49.1777 22.6893L55.9961 30.6879V29.3775L49.8995 22.2958Z" fill="#DC0032"/>
<path fill-rule="evenodd" clip-rule="evenodd" d="M29.0488 0.264648L45.3125 19.2142L46.0312 18.8208L31.016 1.31172L29.0488 0.264648ZM49.3088 22.6218L48.587 23.0153L55.997 31.6707V30.4253L49.3088 22.6218Z" fill="#DC0032"/>
<path fill-rule="evenodd" clip-rule="evenodd" d="M27.998 0.00150676L44.7202 19.5427L45.4389 19.1493L29.4416 0.459989L29.0482 0.264824C28.7306 0.0783256 28.3661 -0.0130667 27.998 0.00150676V0.00150676ZM48.7196 22.9504L47.9978 23.3438L55.9964 32.6559V31.4106L48.7196 22.9504Z" fill="#DC0032"/>
<path fill-rule="evenodd" clip-rule="evenodd" d="M27.9978 0.00292969C27.7345 0.00292969 27.4712 0.0679845 27.2109 0.133039L44.1283 19.8694L44.9152 19.476L28.1961 0.00292969L27.9978 0.00292969ZM48.1958 23.2802L47.474 23.6736L55.9962 33.7075V32.3941L48.1958 23.2802Z" fill="#DC0032"/>
<path fill-rule="evenodd" clip-rule="evenodd" d="M27.4099 0.0654297C27.2767 0.130485 27.0815 0.195539 27.0165 0.263692L26.623 0.458857L43.6055 20.1953L44.3273 19.8018L27.4099 0.0685275V0.0654297ZM47.6048 23.606L46.883 24.0645L55.9969 34.6901V33.4417L47.6048 23.606Z" fill="#DC0032"/>
<path fill-rule="evenodd" clip-rule="evenodd" d="M26.7526 0.330078L26.0308 0.723505L43.0132 20.525L43.735 20.1315L26.7526 0.330078ZM47.0125 23.9357L46.2938 24.3942L55.9963 35.6704V34.425L47.0125 23.9357Z" fill="#DC0032"/>
<path fill-rule="evenodd" clip-rule="evenodd" d="M26.1606 0.658203L25.4419 1.05163L42.4243 20.8531L43.1461 20.4597L26.1606 0.658203ZM46.4205 24.2638L45.7018 24.7223L55.996 36.7203V35.4749L46.4205 24.2638Z" fill="#DC0032"/>
<path fill-rule="evenodd" clip-rule="evenodd" d="M25.5729 0.982422L24.8511 1.37585L41.8335 21.1804L42.5553 20.787L25.5729 0.982422ZM45.8328 24.588L45.1141 25.0496L55.9969 37.7043V36.459L45.8328 24.588Z" fill="#DC0032"/>
<path fill-rule="evenodd" clip-rule="evenodd" d="M24.9804 1.3125L24.2617 1.70593L41.2441 21.5105L41.9659 21.1171L24.9804 1.3125ZM45.2404 24.9181L44.5217 25.3766L55.9961 38.6881V37.4427L45.2404 24.9181Z" fill="#DC0032"/>
<path fill-rule="evenodd" clip-rule="evenodd" d="M24.3929 1.64258L23.668 2.02981L40.6504 21.8313L41.3722 21.4378L24.3929 1.64258ZM44.721 25.2482L43.9992 25.7036L55.9971 39.7368V38.4915L44.721 25.2482Z" fill="#DC0032"/>
<path fill-rule="evenodd" clip-rule="evenodd" d="M23.8002 1.9043L23.0815 2.36278L40.129 22.1642L40.8508 21.7708L23.8002 1.9043ZM44.1283 25.64L43.4065 26.0335L55.9962 40.7204V39.475L44.1283 25.64Z" fill="#DC0032"/>
<path fill-rule="evenodd" clip-rule="evenodd" d="M23.2125 2.23242L22.4907 2.62585L39.5382 22.4924L40.26 22.0989L23.2125 2.23242ZM43.5406 25.9682L42.8188 26.3616L55.9971 41.7703V40.4599L43.5406 25.9682Z" fill="#DC0032"/>
<path fill-rule="evenodd" clip-rule="evenodd" d="M22.6201 2.55664L21.9014 2.95007L38.9488 22.8847L39.6706 22.4263L22.6201 2.55664ZM42.9482 26.2955L42.2264 26.6889L55.9963 42.7543V41.5059L42.9482 26.2955Z" fill="#DC0032"/>
<path fill-rule="evenodd" clip-rule="evenodd" d="M22.0314 2.88672L21.3096 3.28015L38.357 23.2148L39.0788 22.7563L22.0314 2.88672ZM42.3595 26.6255L41.6377 27.019L55.9962 43.7381V42.4927L42.3595 26.6255Z" fill="#DC0032"/>
<path fill-rule="evenodd" clip-rule="evenodd" d="M21.4404 3.21387L20.7217 3.60729L37.7692 23.5451L38.4909 23.0866L21.4404 3.21387ZM41.7685 26.9527L41.0467 27.3461L55.9969 44.787V43.4766L41.7685 26.9527Z" fill="#DC0032"/>
<path fill-rule="evenodd" clip-rule="evenodd" d="M20.8481 3.54199L20.1294 3.93542L37.1769 23.8701L37.8987 23.4085L20.8481 3.54199ZM41.2443 27.2777L40.5225 27.6712L55.9963 45.7688V44.5235L41.2443 27.2777Z" fill="#DC0032"/>
<path fill-rule="evenodd" clip-rule="evenodd" d="M20.26 3.80664L19.4731 4.20007L36.6538 24.1967L37.3756 23.7382L20.26 3.80664ZM40.6531 27.6074L39.9313 28.0009L55.9968 46.7552V45.5099L40.6531 27.6074Z" fill="#DC0032"/>
<path fill-rule="evenodd" clip-rule="evenodd" d="M19.6706 4.13086L18.8838 4.52429L36.1295 24.5891C36.1809 24.473 36.2737 24.3803 36.3897 24.3288L36.7832 24.0655L19.6706 4.13086ZM40.0638 27.9347L39.342 28.3282L55.8659 47.6061C55.9401 47.418 55.984 47.2193 55.996 47.0175V46.4909L40.0638 27.9347Z" fill="#DC0032"/>
<path fill-rule="evenodd" clip-rule="evenodd" d="M19.0829 4.46094L18.293 4.85127L35.9352 25.3745V25.1143C35.9352 24.916 36.0684 24.6558 36.1985 24.4576L19.0829 4.46094ZM39.473 28.2617L38.9463 28.5901C38.8844 28.5901 38.8193 28.652 38.7512 28.652L55.5384 48.2614C55.7209 48.0281 55.8546 47.7605 55.9318 47.4746L39.473 28.2617Z" fill="#DC0032"/>
<path fill-rule="evenodd" clip-rule="evenodd" d="M18.4905 4.78906L17.7036 5.18249L35.9314 26.4275V25.1172L18.4905 4.78906ZM37.6352 28.3296L55.0761 48.7228C55.2743 48.5896 55.4726 48.3294 55.6678 48.1342L38.8836 28.5929C38.739 28.658 38.5822 28.6916 38.4236 28.6916C38.265 28.6916 38.1082 28.658 37.9636 28.5929L37.6352 28.3296Z" fill="#DC0032"/>
<path fill-rule="evenodd" clip-rule="evenodd" d="M17.8996 5.11621L17.1128 5.50964L54.4915 49.0499L55.0181 48.7866L55.2133 48.5883L38.0357 28.5917H37.9675L36.462 27.6717C36.3288 27.6097 36.2637 27.4765 36.1336 27.3433C36.0004 27.1481 36.0004 27.018 35.9353 26.8848V26.163L17.8996 5.11621Z" fill="#DC0032"/>
<path fill-rule="evenodd" clip-rule="evenodd" d="M17.3108 5.44336L16.5239 5.83679L53.8995 49.374L54.6213 48.9805L17.3108 5.44336Z" fill="#DC0032"/>
<path fill-rule="evenodd" clip-rule="evenodd" d="M16.7185 5.70508L15.9316 6.09851L53.3754 49.7038L54.0941 49.3104L16.7185 5.70508Z" fill="#DC0032"/>
<path fill-rule="evenodd" clip-rule="evenodd" d="M16.1306 6.03223L15.3438 6.42565L52.7844 50.031L53.5062 49.6376L16.1306 6.03223Z" fill="#DC0032"/>
<path fill-rule="evenodd" clip-rule="evenodd" d="M15.5383 6.36035L14.7515 6.75378L52.1983 50.3591L52.917 49.9657L15.5383 6.36035Z" fill="#DC0032"/>
<path fill-rule="evenodd" clip-rule="evenodd" d="M14.8854 6.69043L14.1636 7.08386L51.6042 50.7542L52.326 50.2958L14.8854 6.69043Z" fill="#DC0032"/>
<path fill-rule="evenodd" clip-rule="evenodd" d="M14.2931 7.01758L13.5713 7.411L51.015 51.0814L51.7337 50.6229L14.2931 7.01758Z" fill="#DC0032"/>
<path fill-rule="evenodd" clip-rule="evenodd" d="M13.7037 7.3418L12.9819 7.73832L50.4876 51.4087L51.2094 50.9471L13.7037 7.3418Z" fill="#DC0032"/>
<path fill-rule="evenodd" clip-rule="evenodd" d="M13.1134 7.60742L12.3916 8.00085L49.9004 51.7363L50.6222 51.2778L13.1134 7.60742Z" fill="#DC0032"/>
<path fill-rule="evenodd" clip-rule="evenodd" d="M12.524 7.93457L11.8022 8.328L49.3079 52.0635L50.0297 51.67L12.524 7.93457Z" fill="#DC0032"/>
<path fill-rule="evenodd" clip-rule="evenodd" d="M11.9332 8.26465L11.2114 8.65808L29.4423 29.9031L30.0309 30.2966C30.2942 30.4267 30.5575 30.755 30.5575 31.0834V31.1485L48.7202 52.3935L49.442 52.0001L11.9332 8.26465Z" fill="#DC0032"/>
<path fill-rule="evenodd" clip-rule="evenodd" d="M11.3439 8.5918L10.6221 8.98522L27.7346 28.9849L29.9 30.1621L11.3439 8.5918ZM30.4886 30.8839C30.4886 30.9521 30.5567 31.0171 30.5567 31.0822V32.1974L48.1277 52.7207L48.8495 52.3273L30.4886 30.8839Z" fill="#DC0032"/>
<path fill-rule="evenodd" clip-rule="evenodd" d="M10.753 8.91895L10.0312 9.31237L26.0316 27.9986L28.197 29.1789L10.753 8.91895ZM30.5576 31.936V33.1782L47.6051 53.0478L48.3269 52.6544L30.5576 31.936Z" fill="#DC0032"/>
<path fill-rule="evenodd" clip-rule="evenodd" d="M10.1606 9.24707L9.44189 9.6405L24.3921 27.0194L26.4894 28.1966L10.1606 9.24707ZM30.5568 32.9208V34.2312L47.0126 53.376L47.7344 52.9856L30.5568 32.9208Z" fill="#DC0032"/>
<path fill-rule="evenodd" clip-rule="evenodd" d="M9.57141 9.51172L8.84961 9.90205L22.6877 26.0326L24.785 27.2779L9.57141 9.51172ZM30.5562 33.9661V35.2115L46.4234 53.7057L47.1452 53.3091L30.5562 33.9661Z" fill="#DC0032"/>
<path fill-rule="evenodd" clip-rule="evenodd" d="M8.98401 9.83594L8.26221 10.2294L20.982 25.0495L23.0823 26.2948L8.98401 9.83594ZM30.5574 34.9502V36.1955L45.8329 54.0299L46.5547 53.6364L30.5574 34.9502Z" fill="#DC0032"/>
<path fill-rule="evenodd" clip-rule="evenodd" d="M8.39482 10.1631L7.66992 10.5596L19.2776 24.1313L21.3748 25.3116L8.39482 10.1631ZM30.5568 35.9372V37.2476L45.2407 54.4252L45.9655 53.9667L30.5568 35.9372Z" fill="#DC0032"/>
<path fill-rule="evenodd" clip-rule="evenodd" d="M7.80383 10.4941L7.08203 10.8876L17.5744 23.1489L19.6717 24.326L7.80383 10.4941ZM30.5575 36.9808V38.2292L44.7209 54.7531L45.4396 54.2946L30.5575 36.9808Z" fill="#DC0032"/>
<path fill-rule="evenodd" clip-rule="evenodd" d="M7.21155 10.8184L6.48975 11.2118L15.8669 22.1627L18.0323 23.343L7.21155 10.8184ZM30.5569 37.9648V39.2133L44.1286 55.0804L44.8504 54.622L30.5569 37.9648Z" fill="#DC0032"/>
<path fill-rule="evenodd" clip-rule="evenodd" d="M6.62365 11.1484L5.90186 11.5419L14.1638 21.1824L16.3261 22.4277L6.62365 11.1484ZM23.8012 32.3935L25.5051 34.3606V33.6388C25.5051 33.5087 25.3749 33.3136 25.2448 33.2454L23.8012 32.3935ZM30.5545 38.9516V40.262L43.5407 55.4105L44.2594 54.952L30.5545 38.9516Z" fill="#DB0032"/>
<path fill-rule="evenodd" clip-rule="evenodd" d="M6.03137 11.4111L5.30957 11.8046L12.4594 20.1997L14.6217 21.442L6.03137 11.4111ZM22.0968 31.4109L25.5045 35.3451V34.0998L24.2622 32.6562L22.0968 31.4109ZM30.554 40.0012V41.2465L42.9485 55.7383L43.6702 55.3448L30.554 40.0012Z" fill="#DC0032"/>
<path fill-rule="evenodd" clip-rule="evenodd" d="M5.44348 11.7383L4.72168 12.1317L10.8182 19.2784L12.9186 20.4556L5.44348 11.7383ZM20.3937 30.4896L25.5052 36.391V35.1456L22.556 31.6698L20.3937 30.4896ZM30.5547 40.982V42.2273L42.3575 56.0623L43.0793 55.6689L30.5547 40.982Z" fill="#DC0032"/>
<path fill-rule="evenodd" clip-rule="evenodd" d="M4.85119 12.0693L4.12939 12.4628L9.11693 18.296L11.2111 19.4763L4.85119 12.0693ZM18.7543 29.5102L25.5077 37.3788V36.1334L20.8485 30.6905L18.7543 29.5102ZM30.5572 42.0348V43.2802L41.8333 56.3934L42.5551 56L30.5572 42.0348Z" fill="#DC0032"/>
<path fill-rule="evenodd" clip-rule="evenodd" d="M4.26184 12.3936L3.54004 12.787L7.40925 17.3129L9.5065 18.4901L4.26184 12.3936ZM17.0467 28.5241L25.5038 38.3597V37.1144L19.1501 29.7725L17.0467 28.5241ZM30.5533 43.0158V44.2611L41.2409 56.7207L41.9658 56.3273L30.5533 43.0158Z" fill="#DC0032"/>
<path fill-rule="evenodd" clip-rule="evenodd" d="M3.67102 12.7207L2.94922 13.1141L5.70631 16.3266L7.80355 17.575L3.67102 12.7207ZM15.3437 27.5408L25.5047 39.4087V38.1633L17.441 28.7862L15.3437 27.5408ZM30.5542 43.9997V45.245L40.6532 57.0478L41.375 56.6544L30.5542 43.9997Z" fill="#DC0032"/>
<path fill-rule="evenodd" clip-rule="evenodd" d="M3.08166 13.0508L2.35986 13.4442L4.00172 15.3463L6.16402 16.5916L3.08166 13.0508ZM13.6391 26.6256L25.5039 40.3955V39.1471L15.7364 27.8058L13.6391 26.6256ZM30.5534 45.0485V46.2969L40.0638 57.3779L40.7856 56.9845L30.5534 45.0485Z" fill="#DC0032"/>
<path fill-rule="evenodd" clip-rule="evenodd" d="M2.49047 13.3125L1.70361 13.7059L2.2922 14.4277L4.4607 15.6049L2.49047 13.3125ZM11.9327 25.6419L25.5075 41.441V40.1306L14.095 26.8191L11.9327 25.6419ZM30.557 46.032V47.2773L39.4726 57.7698L40.1944 57.3113L30.557 46.032Z" fill="#DC0032"/>
<path fill-rule="evenodd" clip-rule="evenodd" d="M1.90184 13.6406L1.44336 13.9008L2.75375 14.6226L1.90184 13.6406ZM10.2289 24.6566L25.5075 42.4258V41.1805L12.3912 25.8988L10.2289 24.6566ZM30.557 47.0138V48.3273L38.949 58.0979L39.6708 57.6363L30.557 47.0138Z" fill="#DC0032"/>
<path fill-rule="evenodd" clip-rule="evenodd" d="M8.59033 23.6729L25.5046 43.4093V42.1639L10.6876 24.9182L8.59033 23.6729ZM30.5541 48.0653V49.3107L38.3607 58.4245L39.0794 57.9661L30.5541 48.0653Z" fill="#DC0032"/>
<path fill-rule="evenodd" clip-rule="evenodd" d="M6.88379 22.7559L25.5081 44.4594V43.149L8.98413 23.9361L6.88379 22.7559ZM30.5576 49.0504V50.2958L37.7694 58.7529L38.4912 58.2944L30.5576 49.0504Z" fill="#DC0032"/>
<path fill-rule="evenodd" clip-rule="evenodd" d="M5.17969 21.7715L25.5078 45.4422V44.1968L7.27693 22.9518L5.17969 21.7715ZM30.5573 50.0332V51.3436L37.1743 59.082L37.8961 58.6886L30.5573 50.0332Z" fill="#DC0032"/>
<path fill-rule="evenodd" clip-rule="evenodd" d="M3.47607 20.7881L25.508 46.4259V45.1806L5.57332 22.0334L3.47607 20.7881ZM30.5575 51.082V52.3273L36.589 59.409L37.3108 59.0156L30.5575 51.082Z" fill="#DB0032"/>
<path fill-rule="evenodd" clip-rule="evenodd" d="M1.76953 19.8027L25.5084 47.4758V46.2274L3.86987 21.0481L1.76953 19.8027ZM30.5579 52.0637V53.3091L36.0658 59.7371L36.7845 59.3437L30.5579 52.0637Z" fill="#DA0032"/>
<path fill-rule="evenodd" clip-rule="evenodd" d="M0.0655979 18.8867L25.5082 48.4588V47.2135L2.231 20.067L0.0625 18.8867H0.0655979ZM30.5577 53.0498V54.3602L35.474 60.0664L36.1958 59.673L30.5577 53.0498Z" fill="#D90032"/>
<path fill-rule="evenodd" clip-rule="evenodd" d="M0 18.8213V19.7383L25.5077 49.4435V48.1951L0.523537 19.0846L0 18.8213ZM30.5572 54.0965V54.8834C30.5542 55.0054 30.5068 55.1221 30.424 55.2117L34.8849 60.3913L35.6036 59.9979L30.5541 54.0965H30.5572Z" fill="#D80032"/>
<path fill-rule="evenodd" clip-rule="evenodd" d="M0 19.4756V20.7891L25.5077 50.4913V49.2459L0 19.4756ZM30.489 55.0823C30.4271 55.3456 30.2288 55.6089 30.0306 55.6709L29.9686 55.739L34.2932 60.7204L35.015 60.3269L30.4921 55.0823H30.489Z" fill="#D70032"/>
<path fill-rule="evenodd" clip-rule="evenodd" d="M0 20.5234V21.7688L25.5077 51.4741V50.2287L0 20.5234ZM30.0956 55.6066C30.0956 55.6716 30.0956 55.6716 30.0337 55.6716L29.3769 56.0651L33.7046 61.0495L34.4233 60.6561L30.0956 55.6066Z" fill="#D60032"/>
<path fill-rule="evenodd" clip-rule="evenodd" d="M0 21.5088V22.7541L25.5077 52.4563V51.211L0 21.5088ZM29.5721 55.9321L28.7852 56.3906L33.178 61.4401L33.8998 60.9816L29.5721 55.9321Z" fill="#D50032"/>
<path fill-rule="evenodd" clip-rule="evenodd" d="M0 22.5557V23.801L25.5077 53.5063V52.261L0 22.5557ZM28.9835 56.2603L28.5219 56.5236C28.3918 56.5856 28.2617 56.5856 28.1285 56.5856L32.5894 61.7683L33.3112 61.3098L28.9835 56.2603Z" fill="#D40032"/>
<path fill-rule="evenodd" clip-rule="evenodd" d="M0 23.541V24.7833L25.5077 54.4854V53.2401L0 23.541ZM26.9513 56.2574L32.0008 62.0938L32.7195 61.6353L28.3267 56.5858C28.2617 56.5858 28.1285 56.6477 28.0634 56.6477H28.0015C27.8032 56.6477 27.67 56.5858 27.5368 56.5207L26.9482 56.2574H26.9513Z" fill="#D30032"/>
<path fill-rule="evenodd" clip-rule="evenodd" d="M0 24.5234V25.8369L31.4091 62.4225L32.1309 61.9641L27.4098 56.4561L25.9662 55.6692C25.8274 55.5898 25.712 55.4753 25.6315 55.3372C25.5511 55.1991 25.5083 55.0422 25.5077 54.8824V54.2287L0 24.5234Z" fill="#D20032"/>
<path fill-rule="evenodd" clip-rule="evenodd" d="M0 25.5742V26.8196L30.8174 62.7546L31.5392 62.3581L0 25.5742Z" fill="#D10032"/>
<path fill-rule="evenodd" clip-rule="evenodd" d="M0 26.5557V27.8041L30.2288 63.0793L30.9506 62.6859L0 26.5557Z" fill="#D00032"/>
<path fill-rule="evenodd" clip-rule="evenodd" d="M0 27.541V28.8514L29.7022 63.4079L30.424 63.0145L0 27.541Z" fill="#CF0032"/>
<path fill-rule="evenodd" clip-rule="evenodd" d="M0 28.5918V29.8371L29.1136 63.7369L29.8354 63.3435L0 28.5918Z" fill="#CE0032"/>
<path fill-rule="evenodd" clip-rule="evenodd" d="M0 29.5732V30.8186L28.4569 63.9966C28.6551 63.9346 28.8503 63.8664 29.0454 63.8014L29.2437 63.6713L0 29.5732Z" fill="#CD0032"/>
<path fill-rule="evenodd" clip-rule="evenodd" d="M0 30.5586V31.869L27.6049 63.9999H27.9984C28.1966 63.9999 28.3918 63.9999 28.587 63.9317L0 30.5586Z" fill="#CC0032"/>
<path fill-rule="evenodd" clip-rule="evenodd" d="M0 31.6064V32.8518L26.0963 63.2789L27.0164 63.8024C27.2115 63.9325 27.5399 64.0007 27.8032 64.0007L0 31.6064Z" fill="#CB0032"/>
<path fill-rule="evenodd" clip-rule="evenodd" d="M0 32.5918V33.8371L24.3925 62.294L26.5548 63.5393L0 32.5918Z" fill="#CA0032"/>
<path fill-rule="evenodd" clip-rule="evenodd" d="M0 33.6387V34.8871L22.6887 61.3118L24.851 62.5571L0 33.6387Z" fill="#C90032"/>
<path fill-rule="evenodd" clip-rule="evenodd" d="M0 34.624V35.8694L20.9817 60.3269L23.0821 61.5722L0 34.624Z" fill="#C80033"/>
<path fill-rule="evenodd" clip-rule="evenodd" d="M0 35.6064V36.8549L19.2779 59.3453L21.3752 60.5906L0 35.6064Z" fill="#C70033"/>
<path fill-rule="evenodd" clip-rule="evenodd" d="M0 36.6543V37.8996L17.506 58.2928L19.6714 59.5381L0 36.6543Z" fill="#C60033"/>
<path fill-rule="evenodd" clip-rule="evenodd" d="M0 37.6387V38.884L15.8021 57.31L17.9675 58.5554L0 37.6387Z" fill="#C50033"/>
<path fill-rule="evenodd" clip-rule="evenodd" d="M0 38.6211V39.8664L14.0952 56.3253L16.2637 57.5706L0 38.6211Z" fill="#C40033"/>
<path fill-rule="evenodd" clip-rule="evenodd" d="M0 39.6719V40.9172L12.3914 55.3439L14.5568 56.5892L0 39.6719Z" fill="#C30033"/>
<path fill-rule="evenodd" clip-rule="evenodd" d="M0 40.6533V41.8987L10.6876 54.3582L12.853 55.6035L0 40.6533Z" fill="#C20033"/>
<path fill-rule="evenodd" clip-rule="evenodd" d="M0 41.6357V42.9492L8.98377 53.3766L11.081 54.6219L0 41.6357Z" fill="#C10033"/>
<path fill-rule="evenodd" clip-rule="evenodd" d="M0 42.6895V43.9348L7.2118 52.3919L9.37719 53.6373L0 42.6895Z" fill="#C00033"/>
<path fill-rule="evenodd" clip-rule="evenodd" d="M0 43.6719V44.9172L5.50798 51.4103L7.67028 52.5875L0 43.6719Z" fill="#BF0033"/>
<path fill-rule="evenodd" clip-rule="evenodd" d="M0 44.6533V45.9668L3.80416 50.3596L5.96646 51.6049L0 44.6533Z" fill="#BE0033"/>
<path fill-rule="evenodd" clip-rule="evenodd" d="M0 45.7041V46.9494L2.09724 49.3751L4.26264 50.6235L0 45.7041Z" fill="#BD0033"/>
<path fill-rule="evenodd" clip-rule="evenodd" d="M0 46.6865V47.0149C0 47.6716 0.458482 48.4585 0.982019 48.7869L2.55573 49.6388L0 46.6896V46.6865Z" fill="#BC0033"/>
<path fill-rule="evenodd" clip-rule="evenodd" d="M0.393066 48.1953C0.523176 48.3285 0.588231 48.4586 0.721439 48.5237L0.393066 48.1953Z" fill="#BB0033"/>
</svg>
