<svg width="186" height="69" viewBox="0 0 186 69" fill="none" xmlns="http://www.w3.org/2000/svg">
<path fill-rule="evenodd" clip-rule="evenodd" d="M36.9324 41.3933C37.1214 41.0642 36.9649 40.6472 36.528 40.6721C34.8982 40.6962 33.2559 40.6231 31.6354 40.7087C30.8762 40.8337 30.9188 41.7203 30.6694 42.2506L28.6135 48.5018C27.2067 48.8251 25.6628 48.6386 24.332 48.1024C23.0383 47.5435 22.1839 46.303 22.0507 44.9775C21.7974 42.6354 22.5983 40.3078 23.6836 38.2304C25.3623 35.1414 28.4601 32.582 32.1745 32.0692C34.2614 31.7671 36.4273 32.0912 38.3175 32.9777C38.7606 33.1357 39.4299 33.3471 39.6661 32.7905C40.0984 31.6508 40.4346 30.468 40.8173 29.3087C40.7142 28.6335 39.8389 28.4923 39.2726 28.2956C36.5675 27.7097 33.7238 27.687 30.9978 28.1705C27.4732 28.8266 24.1337 30.4161 21.5774 32.8131C18.3703 35.791 16.443 39.8719 15.8574 44.0552C15.5661 46.2445 15.8729 48.6832 17.5151 50.3692C19.1729 52.0677 21.675 52.6873 24.0291 52.9023C26.374 53.0537 28.7622 52.9864 31.0567 52.4729C32.0738 52.2177 33.2761 51.9097 33.8028 50.9559C34.8409 47.7666 35.8897 44.5811 36.9324 41.3933V41.3933ZM55.8276 48.1704C56.0081 47.8091 55.5603 47.4887 55.2257 47.7118C53.9405 48.1492 52.6531 48.6327 51.2812 48.7724C49.8248 48.9209 48.1888 48.9443 46.9447 48.1024C45.8881 47.3929 45.6975 46.0309 45.9377 44.9095C45.9315 44.5182 46.0771 44.2058 46.5427 44.3404C49.3469 44.2497 52.1821 43.7538 54.7121 42.5725C56.7324 41.6274 58.5466 40.1337 59.4452 38.147C60.0533 36.8523 60.4902 35.3506 60.0432 33.952C59.6288 32.7115 58.246 32.0883 56.9702 31.9186C55.4441 31.6735 53.8631 31.7306 52.3688 32.1204C49.4058 32.8724 46.837 34.6645 44.84 36.826C42.2163 39.6612 40.5686 43.2805 40.148 47.0213C40.0186 48.5062 40.1464 50.1666 41.272 51.315C42.3565 52.4108 44.0003 52.7802 45.5302 52.9096C46.7177 53.0084 47.9208 52.9923 49.1091 52.9096C50.5143 52.8116 51.9265 52.6112 53.2666 52.2001C54.0041 51.9324 54.8662 51.5345 54.991 50.7101L55.8276 48.1704ZM53.1659 35.5254C53.8259 35.5181 54.6982 35.66 54.8833 36.3666C55.0746 37.6709 54.1846 38.918 52.9854 39.5047C51.2424 40.4117 49.2198 40.6787 47.2592 40.7803C47.2584 40.5653 47.542 40.1688 47.6434 39.8821C48.4909 38.229 49.704 36.5883 51.5446 35.8371C52.0504 35.6235 52.6136 35.5423 53.1659 35.5254V35.5254Z" fill="#264591"/>
<path fill-rule="evenodd" clip-rule="evenodd" d="M138.074 38.3106C137.475 37.9654 137.249 37.1652 137.661 36.6122C138.142 35.7344 139.295 35.4901 140.26 35.3965C141.592 35.248 142.961 35.4996 144.116 36.1491C144.654 36.3737 145.146 36.8543 145.763 36.8075C146.392 36.5551 146.369 35.7936 146.607 35.2743C146.813 34.5355 147.155 33.8194 147.273 33.0667C147.161 32.3725 146.344 32.1019 145.739 31.8671C144.321 31.4728 142.844 31.3004 141.366 31.3565C139.613 31.415 137.857 31.8744 136.344 32.7171C133.99 34.0169 132.338 36.3466 131.917 38.8841C131.65 40.1276 131.761 41.5467 132.695 42.5312C133.517 43.4119 134.637 43.9722 135.604 44.6964C136.406 45.3043 137.386 45.7644 137.983 46.5741C138.427 47.4299 137.654 48.3772 136.778 48.6208C135.482 49.0948 134.022 49.0333 132.692 48.7202C131.511 48.4189 130.456 47.8125 129.44 47.1937C128.951 46.9376 128.452 47.446 128.407 47.8929C128.074 48.9726 127.669 50.0376 127.381 51.1261C127.289 51.9036 128.194 52.2862 128.845 52.4837C130.552 52.9899 132.37 52.9942 134.141 52.9533C136.28 52.8099 138.41 52.175 140.144 50.9607C141.368 50.083 142.373 48.9346 142.99 47.5989C143.576 46.2881 143.949 44.8149 143.647 43.3966C143.381 42.1238 142.307 41.2065 141.23 40.4941L138.074 38.3106ZM160.018 31.7289H167.96C166.034 33.1236 164.063 34.4633 162.051 35.7461H158.715C157.612 39.1131 156.462 42.4683 155.39 45.8426C155.195 46.6765 154.993 47.8052 155.862 48.3655C156.784 48.8951 157.945 48.797 158.977 48.6859C159.896 48.5622 160.762 48.2521 161.636 47.9749C162.14 47.8951 162.177 48.5184 161.977 48.819C161.679 49.6134 161.476 50.4531 161.122 51.2197C160.448 52.0119 159.316 52.254 158.322 52.5093C156.419 52.9452 154.425 53.0959 152.481 52.8772C151.045 52.7368 149.445 52.0462 149.023 50.6316C148.478 48.8329 149.364 47.0496 149.875 45.3445L153.003 35.7454C152.19 35.7205 151.366 35.798 150.558 35.7029C150.09 35.4418 150.5 34.8544 150.581 34.4814C150.884 33.6892 151.076 32.8443 151.439 32.0858C151.873 31.5204 152.703 31.7918 153.333 31.7289C153.677 31.6381 154.334 31.9505 154.388 31.4875C154.867 30.1262 155.258 28.7276 155.791 27.389C156.191 26.7402 157.075 26.9969 157.727 26.9479C158.891 26.9743 160.071 26.8938 161.225 26.9889C161.677 27.2822 161.249 27.836 161.179 28.2207L160.018 31.7289Z" fill="#F3CA0A"/>
<path fill-rule="evenodd" clip-rule="evenodd" d="M83.7808 51.7439C85.8 45.7392 87.6718 39.6563 89.7877 33.6994C100.07 24.0227 113.007 17.3202 126.128 11.7024C139.677 6.1456 153.881 1.52359 168.653 0.119158C173.699 -0.0938978 179.352 -0.35913 183.625 2.61713C187.164 5.66514 186.25 10.8676 184.097 14.4091C181.495 18.905 177.627 22.6487 173.419 25.8337C176.494 22.2357 179.669 18.2115 180.164 13.4699C180.459 9.77189 176.437 7.55655 173.082 6.9239C164.817 5.42599 156.376 7.09131 148.297 8.79141C132.149 12.6112 116.47 18.3202 101.866 25.8772C104.682 25.8511 108.476 26.7533 108.863 29.8861C109.528 35.3321 105.055 40.6041 99.4184 41.5977C97.8597 41.802 95.9189 42.3368 94.5536 41.4172C94.2727 40.3737 93.9135 39.1301 94.0678 38.0801C96.0063 38.0627 98.288 38.3605 100.003 37.13C101.999 35.7299 103.187 32.9993 102.296 30.7601C100.92 29.26 98.5597 29.8144 96.7109 29.6905C94.2105 37.1757 91.8598 44.7348 89.265 52.1787C88.1231 52.8744 86.493 52.2592 85.1784 52.4657C84.6396 52.4266 83.3503 52.7135 83.7785 51.7439H83.7808Z" fill="#F3CA0A"/>
<path fill-rule="evenodd" clip-rule="evenodd" d="M65.1897 52.5502C62.3877 51.8263 61.126 48.8826 61.4829 46.3455C62.1275 40.78 65.3232 34.9536 71.0169 32.7034C74.1412 31.5251 78.2763 31.1925 80.9355 33.4752C83.3875 35.921 82.5817 39.6669 81.6032 42.5584C81.0598 44.3889 79.1213 45.3998 77.7536 46.6673C70.4391 52.3285 61.5704 55.7591 52.8767 59.0593C40.665 63.3857 28.0872 67.0859 15.1088 68.636C10.9185 68.9838 6.43582 69.4991 2.46195 67.8881C-0.369951 66.7685 -0.524209 63.2291 0.815763 60.9942C2.83493 57.3353 6.31379 54.6221 9.841 52.3046C7.61692 54.5547 5.11427 57.1309 4.96922 60.3724C5.13038 62.9095 8.18791 63.6618 10.3936 63.9226C17.6161 64.5531 24.834 63.2639 31.8976 61.9769C43.2321 59.6941 54.4745 56.7461 65.1897 52.5502V52.5502ZM67.8973 43.9063C67.5473 45.4629 66.8359 47.6891 68.5005 48.7892C70.9502 49.7849 73.3055 47.713 74.2748 45.7346C75.5549 43.2606 76.5541 40.5082 76.5265 37.732C76.5956 36.2058 74.8227 35.3492 73.4137 35.8514C70.4529 36.8058 69.2741 39.906 68.3301 42.4583C68.1804 42.9388 68.0147 43.4149 67.8973 43.9063V43.9063Z" fill="#264591"/>
<path fill-rule="evenodd" clip-rule="evenodd" d="M112.613 52.9677C116.248 52.9992 119.783 51.4155 122.265 48.9424C124.795 46.4715 126.334 43.2259 127.067 39.889C127.459 37.9045 127.571 35.6793 126.406 33.8967C125.317 32.1792 123.125 31.4339 121.095 31.3673C118.678 31.2152 116.236 31.7755 114.138 32.9151C111.408 34.378 109.295 36.7312 107.935 39.3813C106.894 41.3973 106.143 43.569 105.859 45.8C105.63 47.6726 105.882 49.7785 107.315 51.1997C108.65 52.5639 110.716 52.997 112.612 52.9677H112.613ZM112.378 43.7109C112.958 41.597 113.735 39.4867 115.05 37.6726C115.932 36.4825 117.242 35.3802 118.861 35.359C119.754 35.3121 120.744 35.7269 121.01 36.5893C121.365 37.5651 121.2 38.6374 121.012 39.6308C120.528 41.8142 119.858 43.9977 118.68 45.9434C117.868 47.2732 116.674 48.5833 115.006 48.8927C113.999 49.0916 112.705 48.9014 112.222 47.9308C111.664 46.729 111.997 45.3728 112.251 44.1374L112.379 43.7109H112.378Z" fill="#F3CA0A"/>
</svg>
