<svg width="469" height="436" viewBox="0 0 469 436" fill="none" xmlns="http://www.w3.org/2000/svg">
<rect x="150.023" width="161.976" height="99.9968" fill="url(#paint0_linear_45_567)"/>
<rect x="150.023" width="161.976" height="99.9968" stroke="#5E5E5E"/>
<g filter="url(#filter0_d_45_567)">
<path d="M230.885 45.8471L311.999 0.252029H149.771L230.885 45.8471Z" fill="url(#paint1_linear_45_567)" shape-rendering="crispEdges"/>
</g>
<rect x="132.189" width="259.175" height="85.1196" transform="rotate(45.3929 132.189 0)" fill="url(#paint2_linear_45_567)"/>
<path d="M221 186C221 218.033 195.033 244 163 244C130.967 244 105 218.033 105 186C105 153.967 130.967 128 163 128C195.033 128 221 153.967 221 186Z" fill="url(#paint3_radial_45_567)"/>
<path d="M66.6187 218.4C66.6187 214.933 67.3688 211.85 68.8688 209.15C70.3688 206.417 72.4521 204.3 75.1188 202.8C77.8188 201.267 80.8688 200.5 84.2688 200.5C88.4354 200.5 92.0021 201.6 94.9688 203.8C97.9354 206 99.9188 209 100.919 212.8H91.5188C90.8188 211.333 89.8188 210.217 88.5188 209.45C87.2521 208.683 85.8021 208.3 84.1688 208.3C81.5354 208.3 79.4021 209.217 77.7688 211.05C76.1354 212.883 75.3188 215.333 75.3188 218.4C75.3188 221.467 76.1354 223.917 77.7688 225.75C79.4021 227.583 81.5354 228.5 84.1688 228.5C85.8021 228.5 87.2521 228.117 88.5188 227.35C89.8188 226.583 90.8188 225.467 91.5188 224H100.919C99.9188 227.8 97.9354 230.8 94.9688 233C92.0021 235.167 88.4354 236.25 84.2688 236.25C80.8688 236.25 77.8188 235.5 75.1188 234C72.4521 232.467 70.3688 230.35 68.8688 227.65C67.3688 224.95 66.6187 221.867 66.6187 218.4ZM104.455 222C104.455 219.133 104.988 216.617 106.055 214.45C107.155 212.283 108.638 210.617 110.505 209.45C112.371 208.283 114.455 207.7 116.755 207.7C118.721 207.7 120.438 208.1 121.905 208.9C123.405 209.7 124.555 210.75 125.355 212.05V208.1H133.905V236H125.355V232.05C124.521 233.35 123.355 234.4 121.855 235.2C120.388 236 118.671 236.4 116.705 236.4C114.438 236.4 112.371 235.817 110.505 234.65C108.638 233.45 107.155 231.767 106.055 229.6C104.988 227.4 104.455 224.867 104.455 222ZM125.355 222.05C125.355 219.917 124.755 218.233 123.555 217C122.388 215.767 120.955 215.15 119.255 215.15C117.555 215.15 116.105 215.767 114.905 217C113.738 218.2 113.155 219.867 113.155 222C113.155 224.133 113.738 225.833 114.905 227.1C116.105 228.333 117.555 228.95 119.255 228.95C120.955 228.95 122.388 228.333 123.555 227.1C124.755 225.867 125.355 224.183 125.355 222.05ZM157.09 207.8C160.357 207.8 162.957 208.867 164.89 211C166.857 213.1 167.84 216 167.84 219.7V236H159.34V220.85C159.34 218.983 158.857 217.533 157.89 216.5C156.924 215.467 155.624 214.95 153.99 214.95C152.357 214.95 151.057 215.467 150.09 216.5C149.124 217.533 148.64 218.983 148.64 220.85V236H140.09V208.1H148.64V211.8C149.507 210.567 150.674 209.6 152.14 208.9C153.607 208.167 155.257 207.8 157.09 207.8ZM172.082 222C172.082 219.133 172.615 216.617 173.682 214.45C174.782 212.283 176.265 210.617 178.132 209.45C179.998 208.283 182.082 207.7 184.382 207.7C186.215 207.7 187.882 208.083 189.382 208.85C190.915 209.617 192.115 210.65 192.982 211.95V199H201.532V236H192.982V232C192.182 233.333 191.032 234.4 189.532 235.2C188.065 236 186.348 236.4 184.382 236.4C182.082 236.4 179.998 235.817 178.132 234.65C176.265 233.45 174.782 231.767 173.682 229.6C172.615 227.4 172.082 224.867 172.082 222ZM192.982 222.05C192.982 219.917 192.382 218.233 191.182 217C190.015 215.767 188.582 215.15 186.882 215.15C185.182 215.15 183.732 215.767 182.532 217C181.365 218.2 180.782 219.867 180.782 222C180.782 224.133 181.365 225.833 182.532 227.1C183.732 228.333 185.182 228.95 186.882 228.95C188.582 228.95 190.015 228.333 191.182 227.1C192.382 225.867 192.982 224.183 192.982 222.05ZM212.017 205.2C210.517 205.2 209.284 204.767 208.317 203.9C207.384 203 206.917 201.9 206.917 200.6C206.917 199.267 207.384 198.167 208.317 197.3C209.284 196.4 210.517 195.95 212.017 195.95C213.484 195.95 214.684 196.4 215.617 197.3C216.584 198.167 217.067 199.267 217.067 200.6C217.067 201.9 216.584 203 215.617 203.9C214.684 204.767 213.484 205.2 212.017 205.2ZM216.267 208.1V236H207.717V208.1H216.267ZM220.763 222C220.763 219.133 221.297 216.617 222.363 214.45C223.463 212.283 224.947 210.617 226.813 209.45C228.68 208.283 230.763 207.7 233.063 207.7C234.897 207.7 236.563 208.083 238.063 208.85C239.597 209.617 240.797 210.65 241.663 211.95V199H250.213V236H241.663V232C240.863 233.333 239.713 234.4 238.213 235.2C236.747 236 235.03 236.4 233.063 236.4C230.763 236.4 228.68 235.817 226.813 234.65C224.947 233.45 223.463 231.767 222.363 229.6C221.297 227.4 220.763 224.867 220.763 222ZM241.663 222.05C241.663 219.917 241.063 218.233 239.863 217C238.697 215.767 237.263 215.15 235.563 215.15C233.863 215.15 232.413 215.767 231.213 217C230.047 218.2 229.463 219.867 229.463 222C229.463 224.133 230.047 225.833 231.213 227.1C232.413 228.333 233.863 228.95 235.563 228.95C237.263 228.95 238.697 228.333 239.863 227.1C241.063 225.867 241.663 224.183 241.663 222.05ZM254.699 222C254.699 219.133 255.232 216.617 256.299 214.45C257.399 212.283 258.882 210.617 260.749 209.45C262.615 208.283 264.699 207.7 266.999 207.7C268.965 207.7 270.682 208.1 272.149 208.9C273.649 209.7 274.799 210.75 275.599 212.05V208.1H284.149V236H275.599V232.05C274.765 233.35 273.599 234.4 272.099 235.2C270.632 236 268.915 236.4 266.949 236.4C264.682 236.4 262.615 235.817 260.749 234.65C258.882 233.45 257.399 231.767 256.299 229.6C255.232 227.4 254.699 224.867 254.699 222ZM275.599 222.05C275.599 219.917 274.999 218.233 273.799 217C272.632 215.767 271.199 215.15 269.499 215.15C267.799 215.15 266.349 215.767 265.149 217C263.982 218.2 263.399 219.867 263.399 222C263.399 224.133 263.982 225.833 265.149 227.1C266.349 228.333 267.799 228.95 269.499 228.95C271.199 228.95 272.632 228.333 273.799 227.1C274.999 225.867 275.599 224.183 275.599 222.05ZM305.884 228.75V236H301.534C298.434 236 296.018 235.25 294.284 233.75C292.551 232.217 291.684 229.733 291.684 226.3V215.2H288.284V208.1H291.684V201.3H300.234V208.1H305.834V215.2H300.234V226.4C300.234 227.233 300.434 227.833 300.834 228.2C301.234 228.567 301.901 228.75 302.834 228.75H305.884ZM338.197 208.1V236H329.647V232.2C328.78 233.433 327.597 234.433 326.097 235.2C324.63 235.933 322.997 236.3 321.197 236.3C319.064 236.3 317.18 235.833 315.547 234.9C313.914 233.933 312.647 232.55 311.747 230.75C310.847 228.95 310.397 226.833 310.397 224.4V208.1H318.897V223.25C318.897 225.117 319.38 226.567 320.347 227.6C321.314 228.633 322.614 229.15 324.247 229.15C325.914 229.15 327.23 228.633 328.197 227.6C329.164 226.567 329.647 225.117 329.647 223.25V208.1H338.197ZM352.888 212.75C353.888 211.217 355.138 210.017 356.638 209.15C358.138 208.25 359.805 207.8 361.638 207.8V216.85H359.288C357.155 216.85 355.555 217.317 354.488 218.25C353.422 219.15 352.888 220.75 352.888 223.05V236H344.338V208.1H352.888V212.75ZM392.025 221.6C392.025 222.4 391.975 223.233 391.875 224.1H372.525C372.658 225.833 373.208 227.167 374.175 228.1C375.175 229 376.392 229.45 377.825 229.45C379.958 229.45 381.442 228.55 382.275 226.75H391.375C390.908 228.583 390.058 230.233 388.825 231.7C387.625 233.167 386.108 234.317 384.275 235.15C382.442 235.983 380.392 236.4 378.125 236.4C375.392 236.4 372.958 235.817 370.825 234.65C368.692 233.483 367.025 231.817 365.825 229.65C364.625 227.483 364.025 224.95 364.025 222.05C364.025 219.15 364.608 216.617 365.775 214.45C366.975 212.283 368.642 210.617 370.775 209.45C372.908 208.283 375.358 207.7 378.125 207.7C380.825 207.7 383.225 208.267 385.325 209.4C387.425 210.533 389.058 212.15 390.225 214.25C391.425 216.35 392.025 218.8 392.025 221.6ZM383.275 219.35C383.275 217.883 382.775 216.717 381.775 215.85C380.775 214.983 379.525 214.55 378.025 214.55C376.592 214.55 375.375 214.967 374.375 215.8C373.408 216.633 372.808 217.817 372.575 219.35H383.275ZM110.498 311.4C108.065 311.4 105.898 310.983 103.998 310.15C102.098 309.317 100.598 308.183 99.4979 306.75C98.3979 305.283 97.7812 303.65 97.6479 301.85H106.098C106.198 302.817 106.648 303.6 107.448 304.2C108.248 304.8 109.231 305.1 110.398 305.1C111.465 305.1 112.281 304.9 112.848 304.5C113.448 304.067 113.748 303.517 113.748 302.85C113.748 302.05 113.331 301.467 112.498 301.1C111.665 300.7 110.315 300.267 108.448 299.8C106.448 299.333 104.781 298.85 103.448 298.35C102.115 297.817 100.965 297 99.9979 295.9C99.0312 294.767 98.5479 293.25 98.5479 291.35C98.5479 289.75 98.9812 288.3 99.8479 287C100.748 285.667 102.048 284.617 103.748 283.85C105.481 283.083 107.531 282.7 109.898 282.7C113.398 282.7 116.148 283.567 118.148 285.3C120.181 287.033 121.348 289.333 121.648 292.2H113.748C113.615 291.233 113.181 290.467 112.448 289.9C111.748 289.333 110.815 289.05 109.648 289.05C108.648 289.05 107.881 289.25 107.348 289.65C106.815 290.017 106.548 290.533 106.548 291.2C106.548 292 106.965 292.6 107.798 293C108.665 293.4 109.998 293.8 111.798 294.2C113.865 294.733 115.548 295.267 116.848 295.8C118.148 296.3 119.281 297.133 120.248 298.3C121.248 299.433 121.765 300.967 121.798 302.9C121.798 304.533 121.331 306 120.398 307.3C119.498 308.567 118.181 309.567 116.448 310.3C114.748 311.033 112.765 311.4 110.498 311.4ZM135.579 287.05C136.412 285.75 137.562 284.7 139.029 283.9C140.495 283.1 142.212 282.7 144.179 282.7C146.479 282.7 148.562 283.283 150.429 284.45C152.295 285.617 153.762 287.283 154.829 289.45C155.929 291.617 156.479 294.133 156.479 297C156.479 299.867 155.929 302.4 154.829 304.6C153.762 306.767 152.295 308.45 150.429 309.65C148.562 310.817 146.479 311.4 144.179 311.4C142.245 311.4 140.529 311 139.029 310.2C137.562 309.4 136.412 308.367 135.579 307.1V324.3H127.029V283.1H135.579V287.05ZM147.779 297C147.779 294.867 147.179 293.2 145.979 292C144.812 290.767 143.362 290.15 141.629 290.15C139.929 290.15 138.479 290.767 137.279 292C136.112 293.233 135.529 294.917 135.529 297.05C135.529 299.183 136.112 300.867 137.279 302.1C138.479 303.333 139.929 303.95 141.629 303.95C143.329 303.95 144.779 303.333 145.979 302.1C147.179 300.833 147.779 299.133 147.779 297ZM173.664 311.4C170.931 311.4 168.464 310.817 166.264 309.65C164.098 308.483 162.381 306.817 161.114 304.65C159.881 302.483 159.264 299.95 159.264 297.05C159.264 294.183 159.898 291.667 161.164 289.5C162.431 287.3 164.164 285.617 166.364 284.45C168.564 283.283 171.031 282.7 173.764 282.7C176.498 282.7 178.964 283.283 181.164 284.45C183.364 285.617 185.098 287.3 186.364 289.5C187.631 291.667 188.264 294.183 188.264 297.05C188.264 299.917 187.614 302.45 186.314 304.65C185.048 306.817 183.298 308.483 181.064 309.65C178.864 310.817 176.398 311.4 173.664 311.4ZM173.664 304C175.298 304 176.681 303.4 177.814 302.2C178.981 301 179.564 299.283 179.564 297.05C179.564 294.817 178.998 293.1 177.864 291.9C176.764 290.7 175.398 290.1 173.764 290.1C172.098 290.1 170.714 290.7 169.614 291.9C168.514 293.067 167.964 294.783 167.964 297.05C167.964 299.283 168.498 301 169.564 302.2C170.664 303.4 172.031 304 173.664 304ZM209.8 282.8C213.067 282.8 215.667 283.867 217.6 286C219.567 288.1 220.55 291 220.55 294.7V311H212.05V295.85C212.05 293.983 211.567 292.533 210.6 291.5C209.634 290.467 208.334 289.95 206.7 289.95C205.067 289.95 203.767 290.467 202.8 291.5C201.834 292.533 201.35 293.983 201.35 295.85V311H192.8V283.1H201.35V286.8C202.217 285.567 203.384 284.6 204.85 283.9C206.317 283.167 207.967 282.8 209.8 282.8ZM242.042 303.75V311H237.692C234.592 311 232.175 310.25 230.442 308.75C228.708 307.217 227.842 304.733 227.842 301.3V290.2H224.442V283.1H227.842V276.3H236.392V283.1H241.992V290.2H236.392V301.4C236.392 302.233 236.592 302.833 236.992 303.2C237.392 303.567 238.058 303.75 238.992 303.75H242.042ZM245.104 297C245.104 294.133 245.637 291.617 246.704 289.45C247.804 287.283 249.287 285.617 251.154 284.45C253.021 283.283 255.104 282.7 257.404 282.7C259.371 282.7 261.087 283.1 262.554 283.9C264.054 284.7 265.204 285.75 266.004 287.05V283.1H274.554V311H266.004V307.05C265.171 308.35 264.004 309.4 262.504 310.2C261.037 311 259.321 311.4 257.354 311.4C255.087 311.4 253.021 310.817 251.154 309.65C249.287 308.45 247.804 306.767 246.704 304.6C245.637 302.4 245.104 299.867 245.104 297ZM266.004 297.05C266.004 294.917 265.404 293.233 264.204 292C263.037 290.767 261.604 290.15 259.904 290.15C258.204 290.15 256.754 290.767 255.554 292C254.387 293.2 253.804 294.867 253.804 297C253.804 299.133 254.387 300.833 255.554 302.1C256.754 303.333 258.204 303.95 259.904 303.95C261.604 303.95 263.037 303.333 264.204 302.1C265.404 300.867 266.004 299.183 266.004 297.05ZM297.74 282.8C301.006 282.8 303.606 283.867 305.54 286C307.506 288.1 308.49 291 308.49 294.7V311H299.99V295.85C299.99 293.983 299.506 292.533 298.54 291.5C297.573 290.467 296.273 289.95 294.64 289.95C293.006 289.95 291.706 290.467 290.74 291.5C289.773 292.533 289.29 293.983 289.29 295.85V311H280.74V283.1H289.29V286.8C290.156 285.567 291.323 284.6 292.79 283.9C294.256 283.167 295.906 282.8 297.74 282.8ZM340.731 296.6C340.731 297.4 340.681 298.233 340.581 299.1H321.231C321.364 300.833 321.914 302.167 322.881 303.1C323.881 304 325.098 304.45 326.531 304.45C328.664 304.45 330.148 303.55 330.981 301.75H340.081C339.614 303.583 338.764 305.233 337.531 306.7C336.331 308.167 334.814 309.317 332.981 310.15C331.148 310.983 329.098 311.4 326.831 311.4C324.098 311.4 321.664 310.817 319.531 309.65C317.398 308.483 315.731 306.817 314.531 304.65C313.331 302.483 312.731 299.95 312.731 297.05C312.731 294.15 313.314 291.617 314.481 289.45C315.681 287.283 317.348 285.617 319.481 284.45C321.614 283.283 324.064 282.7 326.831 282.7C329.531 282.7 331.931 283.267 334.031 284.4C336.131 285.533 337.764 287.15 338.931 289.25C340.131 291.35 340.731 293.8 340.731 296.6ZM331.981 294.35C331.981 292.883 331.481 291.717 330.481 290.85C329.481 289.983 328.231 289.55 326.731 289.55C325.298 289.55 324.081 289.967 323.081 290.8C322.114 291.633 321.514 292.817 321.281 294.35H331.981ZM332.581 275.95L320.531 281V275.1L332.581 269.3V275.95ZM371.542 296.6C371.542 297.4 371.492 298.233 371.392 299.1H352.042C352.175 300.833 352.725 302.167 353.692 303.1C354.692 304 355.908 304.45 357.342 304.45C359.475 304.45 360.958 303.55 361.792 301.75H370.892C370.425 303.583 369.575 305.233 368.342 306.7C367.142 308.167 365.625 309.317 363.792 310.15C361.958 310.983 359.908 311.4 357.642 311.4C354.908 311.4 352.475 310.817 350.342 309.65C348.208 308.483 346.542 306.817 345.342 304.65C344.142 302.483 343.542 299.95 343.542 297.05C343.542 294.15 344.125 291.617 345.292 289.45C346.492 287.283 348.158 285.617 350.292 284.45C352.425 283.283 354.875 282.7 357.642 282.7C360.342 282.7 362.742 283.267 364.842 284.4C366.942 285.533 368.575 287.15 369.742 289.25C370.942 291.35 371.542 293.8 371.542 296.6ZM362.792 294.35C362.792 292.883 362.292 291.717 361.292 290.85C360.292 289.983 359.042 289.55 357.542 289.55C356.108 289.55 354.892 289.967 353.892 290.8C352.925 291.633 352.325 292.817 352.092 294.35H362.792Z" fill="white"/>
<defs>
<filter id="filter0_d_45_567" x="145.771" y="0.252014" width="170.229" height="53.5951" filterUnits="userSpaceOnUse" color-interpolation-filters="sRGB">
<feFlood flood-opacity="0" result="BackgroundImageFix"/>
<feColorMatrix in="SourceAlpha" type="matrix" values="0 0 0 0 0 0 0 0 0 0 0 0 0 0 0 0 0 0 127 0" result="hardAlpha"/>
<feOffset dy="4"/>
<feGaussianBlur stdDeviation="2"/>
<feComposite in2="hardAlpha" operator="out"/>
<feColorMatrix type="matrix" values="0 0 0 0 0 0 0 0 0 0 0 0 0 0 0 0 0 0 0.25 0"/>
<feBlend mode="normal" in2="BackgroundImageFix" result="effect1_dropShadow_45_567"/>
<feBlend mode="normal" in="SourceGraphic" in2="effect1_dropShadow_45_567" result="shape"/>
</filter>
<linearGradient id="paint0_linear_45_567" x1="231.011" y1="0" x2="231.011" y2="99.9968" gradientUnits="userSpaceOnUse">
<stop stop-color="#E49D9D"/>
<stop offset="0.765625" stop-color="white" stop-opacity="0"/>
</linearGradient>
<linearGradient id="paint1_linear_45_567" x1="230.885" y1="45.8471" x2="230.885" y2="0.252029" gradientUnits="userSpaceOnUse">
<stop stop-color="#B9B8B8"/>
<stop offset="0.166667" stop-color="#C4C3C3" stop-opacity="0.84375"/>
<stop offset="1" stop-color="white" stop-opacity="0"/>
</linearGradient>
<linearGradient id="paint2_linear_45_567" x1="261.777" y1="0" x2="261.777" y2="85.1196" gradientUnits="userSpaceOnUse">
<stop stop-color="#FFD0D0"/>
<stop offset="0.239583" stop-color="#E49D9D"/>
<stop offset="0.791667" stop-color="#C4C4C4" stop-opacity="0"/>
</linearGradient>
<radialGradient id="paint3_radial_45_567" cx="0" cy="0" r="1" gradientUnits="userSpaceOnUse" gradientTransform="translate(164.853 199.607) rotate(123.459) scale(83.296)">
<stop offset="0.4375" stop-color="#E49D9D" stop-opacity="0"/>
<stop offset="1" stop-color="#FFF2F2"/>
</radialGradient>
</defs>
</svg>
