<svg width="166" height="49" viewBox="0 0 166 49" fill="none" xmlns="http://www.w3.org/2000/svg">
<g clip-path="url(#clip0_56_313)">
<path d="M10.2397 38.4667C7.31562 38.4667 4.87888 35.5071 4.87888 31.957C4.87888 29.8272 5.7563 27.9331 7.02378 26.7497L20.6686 17.2805C21.8388 16.4519 22.5207 14.559 22.5207 12.7828C22.5207 9.34938 20.2785 6.62786 17.1599 6.27307H6.34093C2.34486 6.03617 0.395469 8.40406 0.00540161 12.5459V34.5607C0.00540161 38.8226 3.41684 44.1478 8.09481 44.6216H17.4517C20.6072 44.6216 22.7313 42.129 22.9863 38.4438C22.8645 38.4552 22.7417 38.4678 22.617 38.4678H10.2397V38.4667Z" fill="#255398"/>
<path d="M19.012 0H10.2397C7.31563 0 4.87889 2.95843 4.87889 6.27278H17.1599C20.2785 6.62756 22.5207 9.34908 22.5207 12.7825C22.5207 14.5575 21.8378 16.4516 20.6686 17.2802L7.02379 26.7494C5.75631 27.9328 4.87889 29.8257 4.87889 31.9567C4.87889 35.508 7.31563 38.4664 10.2397 38.4664H22.618C25.5496 38.4664 27.9788 35.5068 27.9788 31.9567V10.7705C27.9788 4.8525 23.8855 0 19.012 0Z" fill="#CF4037"/>
<path d="M39.0905 37.9923C39.0905 37.9923 39.1878 39.2947 39.0905 39.8863C39.0905 40.5959 39.6751 40.478 39.6751 40.478H44.8414V44.5031H38.5059C37.0438 44.5031 35.8736 43.0828 35.8736 41.1887V31.1278C35.8719 30.7081 35.9388 30.2921 36.0704 29.9038C36.202 29.5156 36.3957 29.1627 36.6404 28.8657C36.8851 28.5686 37.176 28.3332 37.4961 28.173C37.8163 28.0129 38.1595 27.9311 38.5059 27.9325H42.2092C42.5556 27.9311 42.8987 28.0129 43.2189 28.173C43.5391 28.3332 43.8299 28.5686 44.0746 28.8657C44.3193 29.1627 44.5131 29.5156 44.6447 29.9038C44.7763 30.2921 44.8432 30.7081 44.8414 31.1278V37.9923H39.0905V37.9923ZM160.244 37.9923V39.8863C160.244 40.5959 160.732 40.478 160.732 40.478H165.995V44.5031H159.659C159.3 44.5034 158.945 44.4178 158.613 44.2513C158.281 44.0847 157.98 43.8405 157.726 43.5326C157.473 43.2247 157.272 42.8591 157.135 42.4569C156.998 42.0547 156.929 41.6237 156.93 41.1887V31.1278C156.93 29.3527 158.197 27.9325 159.659 27.9325H163.265C164.824 27.9325 165.995 29.3527 165.995 31.1278V37.9923H160.244V37.9923ZM98.4487 39.0589C98.6433 39.2947 98.7415 39.5316 98.7415 39.7685C98.7415 40.3601 98.1569 40.9518 97.474 40.9518H94.0626V44.621H99.1307C100.593 44.621 102.056 42.3721 102.056 40.5959V39.0578C102.056 38.1101 101.471 36.6899 100.788 36.0982L97.474 33.3755C97.2785 33.2565 97.1813 32.9029 97.1813 32.6659C97.1813 32.0731 97.5713 31.4826 98.4487 31.4826H101.665V27.8134H97.2776C95.3291 27.8134 93.8671 30.1802 93.8671 32.1921V32.9029C93.8671 33.9683 94.1599 35.2696 95.0364 36.0982L98.4487 39.0589ZM119.306 39.0589C119.405 39.2947 119.599 39.5316 119.599 39.7685C119.599 40.3601 119.015 40.9518 118.333 40.9518H114.823V44.621H119.989C121.451 44.621 122.913 42.3721 122.913 40.5959V39.0578C122.913 38.1101 122.329 36.6899 121.647 36.0982L118.333 33.3755C118.137 33.2565 118.04 32.9029 118.04 32.6659C118.04 32.0731 118.333 31.4826 119.306 31.4826H122.523V27.8134H118.136C116.188 27.8134 114.726 30.1802 114.726 32.1921V32.9029C114.726 33.9683 115.019 35.2696 115.895 36.0982L119.306 39.0589ZM106.539 39.0589C106.734 39.2947 106.832 39.5316 106.832 39.7685C106.832 40.3601 106.247 40.9518 105.564 40.9518H102.153V44.621H107.319C108.781 44.621 110.146 42.3721 110.146 40.5959V39.0578C110.146 38.1101 109.658 36.6899 108.977 36.0982L105.565 33.3755C105.371 33.2565 105.273 32.9029 105.273 32.6659C105.273 32.0731 105.663 31.4826 106.54 31.4826H109.756V27.8134H105.467C103.519 27.8134 101.958 30.1802 101.958 32.1921V32.9029C101.958 33.9683 102.251 35.2696 103.226 36.0982L106.539 39.0589ZM134.707 34.0862C134.707 34.0862 135.195 33.9683 135.195 33.3767V32.6671C135.195 31.9564 134.707 31.9564 134.707 31.9564H130.125V28.0515H135.778C137.241 28.0515 138.508 29.4706 138.508 31.2468V44.6221H135.194V44.1483C134.902 44.6221 134.61 44.6221 134.61 44.6221H132.075C130.613 44.6221 129.444 43.2018 129.444 41.3078V37.7554C129.444 35.9803 130.515 34.6791 132.075 34.441L134.707 34.0862V34.0862ZM135.292 37.4017L133.147 37.7565C133.147 37.7565 132.659 37.8755 132.659 38.5862V39.8886C132.659 39.8886 132.659 40.5982 133.244 40.5982H134.706C134.706 40.5982 135.291 40.5982 135.291 40.0065V37.4017H135.292V37.4017ZM89.2864 34.0862C89.2864 34.0862 89.7738 33.9683 89.7738 33.3767V32.6671C89.872 31.9564 89.2864 31.9564 89.2864 31.9564H84.7057V28.0515H90.4566C90.803 28.0501 91.1462 28.1319 91.4664 28.2921C91.7865 28.4522 92.0774 28.6876 92.3221 28.9847C92.5668 29.2818 92.7605 29.6346 92.8921 30.0228C93.0237 30.4111 93.0906 30.8271 93.0889 31.2468V44.6221H89.7738V44.1483C89.5792 44.6221 89.1901 44.6221 89.1901 44.6221H86.7533C86.3943 44.6226 86.0387 44.5371 85.707 44.3706C85.3753 44.2041 85.074 43.9599 84.8204 43.652C84.5668 43.344 84.3659 42.9784 84.2292 42.5761C84.0925 42.1738 84.0227 41.7428 84.0238 41.3078V37.7554C84.0238 35.9803 85.1931 34.6791 86.7533 34.441L89.2864 34.0862V34.0862ZM89.9693 37.4017L87.8244 37.7565C87.8244 37.7565 87.2397 37.8755 87.2397 38.5862V39.8886C87.2397 39.8886 87.2397 40.5982 87.9226 40.5982H89.3846C89.3846 40.5982 89.9693 40.5982 89.9693 40.0065V37.4017V37.4017ZM139.873 27.6956H142.993V28.3079C143.384 28.062 143.819 27.9333 144.259 27.9325H146.209C146.555 27.9311 146.898 28.0129 147.218 28.173C147.539 28.3332 147.829 28.5687 148.074 28.8657C148.319 29.1628 148.512 29.5157 148.644 29.9039C148.775 30.2922 148.842 30.7081 148.84 31.1278V44.5031H145.819V33.0219C145.819 32.3112 145.331 31.7195 144.747 31.7195H144.064C143.479 31.7195 142.992 32.3112 142.992 33.0219V44.5019H139.872V27.6956H139.873V27.6956ZM110.924 22.9609H114.044V26.7491H110.924V22.9609ZM110.924 28.0515H114.044V44.6221H110.924V28.0515V28.0515ZM123.595 23.6716H126.715V27.9325H129.249V31.4837H126.715V39.4137C126.715 40.1232 127.202 40.7161 127.787 40.7161H129.249V44.5042H126.228C124.766 44.5042 123.596 43.084 123.596 41.1899V23.6716H123.595V23.6716ZM156.249 40.7149H153.908C153.624 40.7113 153.353 40.5729 153.152 40.3293C152.952 40.0857 152.838 39.7565 152.836 39.4125V32.9029C152.836 32.1921 153.324 31.6005 153.908 31.6005H156.345V27.9313H152.446C152.1 27.93 151.757 28.0117 151.437 28.1719C151.116 28.3321 150.826 28.5675 150.581 28.8646C150.336 29.1617 150.143 29.5145 150.011 29.9028C149.88 30.291 149.813 30.707 149.815 31.1267V41.1876C149.815 43.0805 150.984 44.5019 152.446 44.5019H156.345L156.249 40.7149ZM163.071 34.4421V32.7861C163.071 31.7206 162.388 31.4837 161.608 31.4837C160.828 31.4837 160.146 31.7206 160.146 32.7861V34.4421H163.071V34.4421ZM61.2157 27.9325H59.6564C59.6564 27.9325 59.1643 27.9325 58.8763 28.2804V27.9325H55.7576V44.5031H58.8763V32.3192C58.8971 32.1475 59.0227 31.8374 59.6564 31.8374H61.2157V27.9325ZM71.7428 27.8146H74.8615V28.309C75.2532 28.0632 75.6878 27.9344 76.129 27.9336H78.0784C78.4247 27.9322 78.7679 28.014 79.0881 28.1742C79.4083 28.3343 79.6991 28.5697 79.9438 28.8668C80.1885 29.1639 80.3823 29.5167 80.5139 29.905C80.6455 30.2932 80.7123 30.7092 80.7106 31.1289V41.1899C80.7106 43.0828 79.5404 44.5042 78.0784 44.5042H76.129C75.6775 44.5042 75.244 44.368 74.8615 44.1254V49.002H71.7428V27.8146V27.8146ZM74.8615 32.3672V39.9493C75.0324 40.3968 75.4093 40.7149 75.8362 40.7149H76.5181C77.1027 40.7149 77.5901 40.1221 77.5901 39.4125V32.9029C77.5901 32.1921 77.1027 31.6005 76.5181 31.6005H75.8362C75.6305 31.6033 75.4296 31.6769 75.2571 31.8126C75.0845 31.9484 74.9473 32.1407 74.8615 32.3672V32.3672ZM51.567 39.4125C51.567 40.1221 51.0787 40.7149 50.4941 40.7149H49.8122C49.5283 40.7113 49.2569 40.5729 49.0564 40.3293C48.856 40.0857 48.7424 39.7565 48.7402 39.4125V27.9325H45.6215V41.1887C45.6206 41.6236 45.6904 42.0545 45.8271 42.4567C45.9638 42.8588 46.1646 43.2243 46.4181 43.5322C46.6716 43.8401 46.9727 44.0843 47.3043 44.251C47.6358 44.4176 47.9912 44.5032 48.3501 44.5031H51.9571C53.5164 44.5031 54.6866 43.0828 54.6866 41.1887V27.9325H51.568V39.4125H51.567V39.4125ZM64.2371 44.5031C63.8781 44.5034 63.5226 44.4178 63.191 44.2513C62.8593 44.0847 62.5581 43.8405 62.3045 43.5326C62.0509 43.2247 61.85 42.8591 61.7132 42.4569C61.5765 42.0547 61.5066 41.6237 61.5076 41.1887V31.1278C61.5076 29.3527 62.7751 27.9325 64.2371 27.9325H67.8431C69.4024 27.9325 70.5726 29.3527 70.5726 31.1278V41.1887C70.5726 43.0817 69.4034 44.5031 67.8431 44.5031H64.2371V44.5031ZM66.382 40.7149C66.9666 40.7149 67.454 40.1221 67.454 39.4125V32.9029C67.454 32.1921 66.9666 31.6005 66.382 31.6005H65.6992C65.1145 31.6005 64.6272 32.1921 64.6272 32.9029V39.4125C64.6272 40.1221 65.1145 40.7149 65.6992 40.7149H66.382ZM41.9164 34.4421V32.7861C41.9164 31.7206 41.2345 31.4837 40.4543 31.4837C39.6742 31.4837 38.9923 31.7206 38.9923 32.7861V34.4421H41.9164V34.4421Z" fill="#255398"/>
</g>
<defs>
<clipPath id="clip0_56_313">
<rect width="166" height="49" fill="white"/>
</clipPath>
</defs>
</svg>
